<?xml version="1.0" standalone="no"?>
<!DOCTYPE svg PUBLIC "-//W3C//DTD SVG 20010904//EN"
 "http://www.w3.org/TR/2001/REC-SVG-20010904/DTD/svg10.dtd">
<svg version="1.0" xmlns="http://www.w3.org/2000/svg"
 width="545.000000pt" height="462.000000pt" viewBox="0 0 545.000000 462.000000"
 preserveAspectRatio="xMidYMid meet">

<g transform="translate(0.000000,462.000000) scale(0.100000,-0.100000)"
fill="#000000" stroke="none">
<path d="M2506 4568 c-13 -24 -171 -313 -351 -643 -180 -330 -378 -692 -440
-805 -62 -113 -192 -351 -290 -530 -156 -286 -799 -1459 -1257 -2294 -87 -159
-158 -290 -158 -292 0 -2 389 -4 865 -4 l866 0 -3 142 -3 142 -73 13 c-232 38
-376 147 -418 313 -21 84 -15 171 21 277 15 46 143 306 289 590 144 279 464
900 711 1378 246 479 451 874 456 879 4 5 33 -43 65 -105 59 -118 472 -921
1027 -1994 176 -341 332 -649 348 -685 45 -107 62 -186 56 -265 -16 -213 -160
-343 -429 -388 l-73 -13 -3 -142 -3 -142 866 0 c476 0 865 2 865 4 0 2 -11 23
-24 47 -13 24 -113 206 -221 404 -109 198 -326 594 -482 880 -709 1293 -1536
2804 -1718 3140 l-70 130 -197 3 -197 2 -25 -42z"/>
<path d="M2682 2018 c-22 -40 -164 -301 -316 -579 -152 -279 -276 -512 -276
-518 0 -8 179 -11 640 -11 l641 0 -15 28 c-8 15 -76 140 -151 277 -75 138
-211 387 -302 555 -92 168 -169 309 -173 313 -4 5 -26 -24 -48 -65z"/>
</g>
</svg>
