<?xml version="1.0" standalone="no"?>
<!DOCTYPE svg PUBLIC "-//W3C//DTD SVG 20010904//EN"
 "http://www.w3.org/TR/2001/REC-SVG-20010904/DTD/svg10.dtd">
<svg version="1.0" xmlns="http://www.w3.org/2000/svg"
 width="832.000000pt" height="977.000000pt" viewBox="0 0 832.000000 977.000000"
 preserveAspectRatio="xMidYMid meet">

<g transform="translate(0.000000,977.000000) scale(0.100000,-0.100000)"
fill="#000000" stroke="none">
<path d="M3979 9497 c-97 -150 -263 -405 -369 -567 -195 -299 -569 -873 -757
-1165 -57 -87 -103 -165 -103 -172 0 -8 37 -78 83 -156 201 -343 623 -1057
654 -1106 l34 -53 642 5 c353 3 643 6 644 7 2 0 93 153 357 600 350 592 408
693 403 709 -2 11 -150 243 -328 518 -178 274 -380 586 -449 693 -70 107 -214
328 -320 490 -105 162 -218 334 -249 382 -31 49 -58 88 -61 88 -3 -1 -84 -123
-181 -273z"/>
<path d="M2365 7479 c-66 -5 -563 -39 -1105 -74 -1164 -77 -1251 -83 -1255
-87 -2 -2 153 -311 344 -688 191 -377 452 -890 579 -1140 l231 -455 158 3 c87
1 426 7 753 13 327 6 598 13 601 17 6 6 315 532 529 902 37 63 77 132 89 152
l22 36 -99 169 c-54 92 -170 290 -257 438 -87 149 -198 338 -245 420 -171 295
-174 300 -200 301 -14 1 -79 -2 -145 -7z"/>
<path d="M5653 7262 c-72 -125 -213 -366 -313 -537 -100 -170 -215 -368 -256
-438 l-75 -128 80 -137 c427 -734 541 -929 553 -944 12 -17 63 -19 648 -28
349 -5 687 -12 751 -14 l115 -4 106 207 c135 264 317 621 603 1186 126 248
279 550 341 672 l112 221 -56 6 c-32 3 -163 13 -292 21 -706 45 -2073 135
-2125 140 l-60 5 -132 -228z"/>
<path d="M3465 5408 c-116 -198 -225 -388 -244 -420 -33 -58 -33 -61 -19 -92
14 -29 424 -739 459 -793 l14 -23 485 0 486 0 19 33 c209 352 465 806 461 819
-3 15 -131 239 -316 553 -42 72 -96 165 -120 208 l-44 77 -486 0 -485 0 -210
-362z"/>
<path d="M785 4064 c-209 -412 -469 -923 -577 -1137 -109 -214 -198 -392 -198
-396 0 -4 134 -15 298 -24 163 -10 365 -22 447 -27 83 -6 411 -26 730 -45 319
-19 688 -42 819 -50 132 -8 243 -12 246 -8 4 5 49 82 102 173 52 91 213 368
358 615 145 248 272 466 283 485 l20 35 -158 270 c-184 314 -289 495 -403 691
l-82 141 -213 7 c-116 3 -455 9 -752 12 l-540 6 -380 -748z"/>
<path d="M6115 4800 c-434 -7 -460 -8 -473 -26 -7 -11 -112 -190 -233 -399
-196 -337 -342 -589 -387 -666 -15 -25 -8 -39 363 -675 208 -357 381 -652 384
-656 3 -4 224 6 491 22 834 51 1637 100 1840 112 107 6 198 14 203 18 4 3 -33
85 -81 181 -49 95 -161 316 -249 489 -88 173 -308 606 -489 963 l-328 647
-291 -2 c-159 -1 -497 -5 -750 -8z"/>
<path d="M3394 3343 c-70 -120 -235 -402 -367 -628 -131 -225 -247 -424 -258
-441 l-18 -30 68 -110 c37 -60 152 -244 256 -409 104 -165 221 -352 260 -415
39 -63 123 -196 185 -295 62 -99 206 -328 320 -510 289 -460 311 -495 319
-495 4 0 96 141 203 313 108 171 315 501 460 732 494 785 738 1175 740 1183 4
10 -19 49 -387 677 -164 281 -316 540 -338 578 l-39 67 -638 0 -638 0 -128
-217z"/>
</g>
</svg>
