<svg xmlns="http://www.w3.org/2000/svg" width="934" height="1074" viewBox="0 0 934 1074" version="1.1"><path d="M 418 525.500 L 418 526 418.500 526 L 419 526 419 525.500 L 419 525 418.500 525 L 418 525 418 525.500 M 521 525.500 L 521 526 521.500 526 L 522 526 522 525.500 L 522 525 521.500 525 L 521 525 521 525.500 M 422 526.500 L 422 527 422.500 527 L 423 527 423 526.500 L 423 526 422.500 526 L 422 526 422 526.500 M 517 526.500 L 517 527 517.500 527 L 518 527 518 526.500 L 518 526 517.500 526 L 517 526 517 526.500 M 425 527.500 L 425 528 425.500 528 L 426 528 426 527.500 L 426 527 425.500 527 L 425 527 425 527.500 M 513 527.500 L 513 528 513.500 528 L 514 528 514 527.500 L 514 527 513.500 527 L 513 527 513 527.500 M 429 528.500 L 429 529 429.500 529 L 430 529 430 528.500 L 430 528 429.500 528 L 429 528 429 528.500 M 509 528.500 L 509 529 509.500 529 L 510 529 510 528.500 L 510 528 509.500 528 L 509 528 509 528.500 M 433 529.500 L 433 530 433.500 530 L 434 530 434 529.500 L 434 529 433.500 529 L 433 529 433 529.500 M 506 529.500 L 506 530 506.500 530 L 507 530 507 529.500 L 507 529 506.500 529 L 506 529 506 529.500 M 416 530.500 L 416 531 416.500 531 L 417 531 417 530.500 L 417 530 416.500 530 L 416 530 416 530.500 M 436 530.500 L 436 531 436.500 531 L 437 531 437 530.500 L 437 530 436.500 530 L 436 530 436 530.500 M 503 530.500 L 503 531 503.500 531 L 504 531 504 530.500 L 504 530 503.500 530 L 503 530 503 530.500 M 523 530.500 L 523 531 523.500 531 L 524 531 524 530.500 L 524 530 523.500 530 L 523 530 523 530.500 M 500 531.500 L 500 532 500.500 532 L 501 532 501 531.500 L 501 531 500.500 531 L 500 531 500 531.500 M 441 532.500 L 441 533 441.500 533 L 442 533 442 532.500 L 442 532 441.500 532 L 441 532 441 532.500 M 417 533.500 L 417 534 417.500 534 L 418 534 418 533.500 L 418 533 417.500 533 L 417 533 417 533.500 M 496 533.500 L 496 534 496.500 534 L 497 534 497 533.500 L 497 533 496.500 533 L 496 533 496 533.500 M 419 539.500 L 419 540 419.500 540 L 420 540 420 539.500 L 420 539 419.500 539 L 419 539 419 539.500 M 520 539.500 L 520 540 520.500 540 L 521 540 521 539.500 L 521 539 520.500 539 L 520 539 520 539.500 M 489 540.500 L 489 541 489.500 541 L 490 541 490 540.500 L 490 540 489.500 540 L 489 540 489 540.500 M 420 541.500 L 420 542 420.500 542 L 421 542 421 541.500 L 421 541 420.500 541 L 420 541 420 541.500 M 451 541.500 L 451 542 451.500 542 L 452 542 452 541.500 L 452 541 451.500 541 L 451 541 451 541.500 M 421 543.500 L 421 544 421.500 544 L 422 544 422 543.500 L 422 543 421.500 543 L 421 543 421 543.500 M 487 543.500 L 487 544 487.500 544 L 488 544 488 543.500 L 488 543 487.500 543 L 487 543 487 543.500 M 517 545.500 L 517 546 517.500 546 L 518 546 518 545.500 L 518 545 517.500 545 L 517 545 517 545.500 M 455 548.500 L 455 549 455.500 549 L 456 549 456 548.500 L 456 548 455.500 548 L 455 548 455 548.500 M 483 551.500 L 483 552 483.500 552 L 484 552 484 551.500 L 484 551 483.500 551 L 483 551 483 551.500 M 510.924 553.750 L 508.500 556.500 511.250 554.076 L 514 551.651 514 551.326 L 514 551 513.674 551 L 513.349 551 510.924 553.750 M 457 553.500 L 457 554 457.500 554 L 458 554 458 553.500 L 458 553 457.500 553 L 457 553 457 553.500 M 432 556.500 L 432 557 432.500 557 L 433 557 433 556.500 L 433 556 432.500 556 L 432 556 432 556.500 M 458 556.500 L 458 557 458.500 557 L 459 557 459 556.500 L 459 556 458.500 556 L 458 556 458 556.500 M 506 557.500 L 506 558 506.500 558 L 507 558 507 557.500 L 507 557 506.500 557 L 506 557 506 557.500 M 504 558.500 L 504 559 504.500 559 L 505 559 505 558.500 L 505 558 504.500 558 L 504 558 504 558.500 M 502 559.500 L 502 560 502.500 560 L 503 560 503 559.500 L 503 559 502.500 559 L 502 559 502 559.500 M 440 560.500 L 440 561 440.500 561 L 441 561 441 560.500 L 441 560 440.500 560 L 440 560 440 560.500 M 443 561.500 L 443 562 443.500 562 L 444 562 444 561.500 L 444 561 443.500 561 L 443 561 443 561.500 M 496 561.500 L 496 562 496.500 562 L 497 562 497 561.500 L 497 561 496.500 561 L 496 561 496 561.500 M 448.333 562.667 L 449 563.333 449.667 562.667 L 450.333 562 449 562 L 447.667 562 448.333 562.667 M 458 562.500 L 458 563 458.500 563 L 459 563 459 562.500 L 459 562 458.500 562 L 458 562 458 562.500 M 489.813 562.683 L 491.125 563.208 491.729 562.604 L 492.333 562 490.417 562.079 L 488.500 562.158 489.813 562.683" stroke="none" fill="#000" fill-rule="evenodd"/><path d="M 462.183 1.750 L 460.145 3.500 415.921 62.500 L 371.696 121.500 357.098 125.252 L 342.500 129.004 331.500 132.653 L 320.500 136.301 309.039 140.715 L 297.578 145.129 287.019 150.036 L 276.459 154.943 271.480 153.365 L 266.500 151.787 259 151.690 L 251.500 151.593 248 153.409 L 244.500 155.224 241.270 158.289 L 238.039 161.354 235.020 168.608 L 232 175.861 231.985 178.180 L 231.969 180.500 231.235 181.638 L 230.500 182.776 218.534 191.503 L 206.569 200.230 197.534 207.848 L 188.500 215.465 173 230.607 L 157.500 245.749 152 246.358 L 146.500 246.967 113 250.942 L 79.500 254.917 45 259.029 L 10.500 263.142 6.747 264.110 L 2.995 265.079 1.387 267.532 L -0.220 269.985 0.445 272.636 L 1.110 275.287 6.418 287.893 L 11.725 300.500 24.756 330.500 L 37.786 360.500 48.958 386.245 L 60.130 411.990 56.123 427.745 L 52.116 443.500 50.122 454 L 48.128 464.500 46.144 479 L 44.161 493.500 43.468 503 L 42.776 512.500 37.352 518.213 L 31.929 523.926 30.451 527.464 L 28.973 531.001 28.812 536.825 L 28.652 542.649 30.853 547.195 L 33.053 551.742 38.025 556.621 L 42.997 561.500 42.999 565.278 L 43 569.057 44.534 583.665 L 46.068 598.274 48.517 612.500 L 50.965 626.727 54.007 639.613 L 57.048 652.500 58.616 657.285 L 60.184 662.070 55.468 672.785 L 50.752 683.500 39.286 710 L 27.821 736.500 14.524 767.500 L 1.227 798.500 0.562 800.699 L -0.102 802.898 1.797 804.797 L 3.696 806.696 7.831 807.357 L 11.966 808.018 49.733 812.541 L 87.500 817.064 121.346 821.049 L 155.191 825.034 168.853 838.767 L 182.514 852.500 195.007 863.055 L 207.500 873.609 213.500 878.165 L 219.500 882.722 225.431 886.871 L 231.361 891.021 233.672 898.349 L 235.982 905.678 238.256 909.052 L 240.530 912.426 244.521 915.231 L 248.513 918.037 253.693 918.650 L 258.873 919.264 266.187 917.559 L 273.500 915.854 287 922.351 L 300.500 928.849 308.500 932.054 L 316.500 935.259 330.779 940.088 L 345.059 944.917 359.875 948.666 L 374.691 952.415 384.095 965.291 L 393.500 978.167 408.831 998.834 L 424.161 1019.500 427.441 1024 L 430.721 1028.500 443.363 1046 L 456.005 1063.500 460.044 1068.810 L 464.083 1074.121 467.291 1073.810 L 470.500 1073.500 479.500 1061.426 L 488.500 1049.352 511.715 1017.926 L 534.929 986.500 547.486 969.500 L 560.043 952.500 565.272 951.216 L 570.500 949.933 585.500 945.882 L 600.500 941.831 616.500 935.798 L 632.500 929.764 647.327 922.692 L 662.155 915.620 665.327 916.856 L 668.500 918.091 675.118 918.680 L 681.735 919.268 687.208 916.762 L 692.681 914.257 695 911 L 697.319 907.744 700.125 899.622 L 702.932 891.500 713.384 884 L 723.836 876.500 737.123 865.500 L 750.410 854.500 765.141 839.838 L 779.872 825.175 792.686 823.604 L 805.500 822.033 832 818.968 L 858.500 815.904 895 811.405 L 931.500 806.906 932.643 805.703 L 933.785 804.500 934.460 802.250 L 935.135 800 934.067 800 L 933 800 933 798.932 L 933 797.864 921.065 770.182 L 909.129 742.500 903.042 728.500 L 896.955 714.500 885.863 688.712 L 874.771 662.925 877.842 651.712 L 880.913 640.500 882.896 631.500 L 884.880 622.500 886.894 610.500 L 888.909 598.500 890.453 585 L 891.998 571.500 891.999 566.843 L 892 562.186 896.798 558.169 L 901.596 554.152 904.465 548.482 L 907.333 542.812 907.314 537.156 L 907.294 531.500 905.036 526.749 L 902.779 521.999 897.390 517.073 L 892 512.147 891.999 508.824 L 891.998 505.500 890.460 492 L 888.923 478.500 886.351 463.500 L 883.780 448.500 879.963 433 L 876.145 417.500 875.165 414.928 L 874.185 412.356 879.159 400.928 L 884.133 389.500 889.968 376 L 895.804 362.500 914.931 318.057 L 934.059 273.614 934.645 271.279 L 935.231 268.943 932.668 266.569 L 930.106 264.194 926.303 263.581 L 922.500 262.967 898.500 260.019 L 874.500 257.070 831 252.035 L 787.500 246.999 782.084 246.364 L 776.668 245.728 767.584 236.204 L 758.500 226.680 745.506 215.235 L 732.511 203.789 721.006 195.191 L 709.500 186.593 706.322 184.301 L 703.143 182.008 702.051 176.754 L 700.960 171.500 698.414 166 L 695.868 160.500 693.684 158.153 L 691.500 155.805 687.622 153.817 L 683.745 151.829 678.622 151.347 L 673.500 150.865 666 152.844 L 658.500 154.824 650 151.028 L 641.500 147.233 630.415 142.668 L 619.331 138.103 605.504 133.483 L 591.678 128.864 576.674 125.013 L 561.670 121.162 560.917 119.831 L 560.163 118.500 543.293 96 L 526.423 73.500 515.879 59.500 L 505.334 45.500 489.190 23.797 L 473.046 2.095 471.089 1.047 L 469.131 0 466.677 0 L 464.222 0 462.183 1.750 M 460.390 46.596 L 456.500 49.192 452.155 53.346 L 447.809 57.500 418.227 99 L 388.644 140.500 353.352 190 L 318.061 239.500 313.480 245.295 L 308.900 251.090 305.836 252.953 L 302.773 254.816 296.636 255.927 L 290.500 257.039 247 261.043 L 203.500 265.047 184 266.982 L 164.500 268.918 122.500 272.962 L 80.500 277.007 70.415 278.459 L 60.331 279.911 55.415 281.547 L 50.500 283.183 46.198 285.664 L 41.895 288.146 40.948 290.638 L 40 293.130 40 297.835 L 40 302.540 41.936 309.520 L 43.872 316.500 46.987 323.816 L 50.103 331.131 65.692 364.316 L 81.282 397.500 88.754 413.500 L 96.226 429.500 101.999 442 L 107.772 454.500 116.990 474.500 L 126.208 494.500 133.794 511 L 141.380 527.500 141.773 535 L 142.166 542.500 138.713 550.500 L 135.261 558.500 113.983 604.500 L 92.705 650.500 87.954 661 L 83.203 671.500 72.021 695.500 L 60.839 719.500 52.461 738.689 L 44.084 757.878 41.542 766.646 L 39 775.414 39 778.672 L 39 781.930 40.933 782.964 L 42.865 783.998 53.183 786.500 L 63.500 789.001 81 790.990 L 98.500 792.980 158.500 798.024 L 218.500 803.068 255.500 806.507 L 292.500 809.945 297.749 810.946 L 302.999 811.948 305.971 813.485 L 308.944 815.022 316.285 824.761 L 323.626 834.500 337.660 855 L 351.693 875.500 373.676 907.500 L 395.658 939.500 410.632 961 L 425.606 982.500 435.983 996.500 L 446.359 1010.500 455.453 1019.750 L 464.546 1029 466.998 1029 L 469.450 1029 478.036 1020.250 L 486.623 1011.500 495.622 999.500 L 504.621 987.500 519.631 966 L 534.641 944.500 548.142 925 L 561.643 905.500 586.007 870 L 610.371 834.500 617.714 824.761 L 625.056 815.022 627.778 813.633 L 630.500 812.243 635.960 811.087 L 641.419 809.931 667.460 807.499 L 693.500 805.068 737 801.501 L 780.500 797.935 814 794.960 L 847.500 791.985 860 790.396 L 872.500 788.806 881.500 786.500 L 890.500 784.193 893.250 783.121 L 896 782.050 896 780.185 L 896 778.320 894.024 770.594 L 892.048 762.868 888.398 753.744 L 884.747 744.620 874.500 722.060 L 864.253 699.500 847.512 663.500 L 830.770 627.500 813.281 589.500 L 795.791 551.500 793.895 546.713 L 792 541.926 792.006 537.213 L 792.011 532.500 793.101 528.574 L 794.191 524.647 805.207 500.574 L 816.222 476.500 832.022 442 L 847.821 407.500 854.766 392.500 L 861.711 377.500 872.482 354.500 L 883.252 331.500 886.686 323.522 L 890.119 315.544 892.060 308.542 L 894 301.540 894 296.817 L 894 292.094 892.837 289.541 L 891.673 286.987 886.587 284.518 L 881.500 282.048 873 280.077 L 864.500 278.107 823.500 274.075 L 782.500 270.044 746 266.532 L 709.500 263.019 676.500 260.018 L 643.500 257.017 640 256.460 L 636.500 255.902 631.934 254.432 L 627.368 252.962 623.794 249.231 L 620.220 245.500 603.816 222.500 L 587.412 199.500 570.040 175 L 552.669 150.500 547.992 144 L 543.315 137.500 520.986 106 L 498.657 74.500 492.396 66 L 486.134 57.500 481.817 53.346 L 477.500 49.192 473.610 46.596 L 469.721 44 467 44 L 464.279 44 460.390 46.596 M 464.193 70.250 L 461.290 74.500 437.307 112 L 413.324 149.500 385.562 193 L 357.801 236.500 355.525 240 L 353.249 243.500 343.374 258.955 L 333.500 274.410 332.758 276.270 L 332.016 278.131 333.558 281.112 L 335.099 284.092 351.391 309.796 L 367.683 335.500 379.253 353.500 L 390.822 371.500 399.661 385.320 L 408.500 399.141 410 399.952 L 411.500 400.763 465.773 401.494 L 520.046 402.224 522.773 401.079 L 525.500 399.934 532.151 389.717 L 538.802 379.500 554.736 354.500 L 570.670 329.500 586.335 304.821 L 602 280.143 602 278.024 L 602 275.905 580.832 242.703 L 559.663 209.500 544.709 186 L 529.756 162.500 516.533 142 L 503.310 121.500 488.856 99 L 474.403 76.500 471.097 71.250 L 467.792 66 467.444 66 L 467.096 66 464.193 70.250 M 325.495 169.115 L 312.500 174.074 301.250 179.157 L 290 184.241 290 185.995 L 290 187.749 288.459 192.124 L 286.918 196.500 284.279 200.313 L 281.640 204.126 277.328 206.654 L 273.015 209.181 267.757 209.335 L 262.500 209.488 256.943 208.653 L 251.387 207.818 235.443 219.900 L 219.500 231.983 215.583 235.491 L 211.667 239 213.541 239 L 215.415 239 227.457 237.516 L 239.500 236.032 264.358 233.049 L 289.217 230.065 290.778 228.783 L 292.339 227.500 315.804 196.218 L 339.269 164.935 338.879 164.546 L 338.490 164.157 325.495 169.115 M 596.566 166.750 L 598.362 169.500 620.106 198.565 L 641.850 227.630 643.330 228.859 L 644.811 230.088 682.155 234.538 L 719.500 238.988 721.308 238.994 L 723.116 239 717.308 233.902 L 711.500 228.804 703.500 222.579 L 695.500 216.354 689.316 212.027 L 683.131 207.699 677.068 208.986 L 671.004 210.272 666.333 209.632 L 661.662 208.992 657.253 206.408 L 652.845 203.825 649.966 199.285 L 647.086 194.744 645.907 189.476 L 644.728 184.208 634.534 179.632 L 624.339 175.056 610.161 169.528 L 595.982 164 595.376 164 L 594.770 164 596.566 166.750 M 0.158 271 L 0.158 273.500 0.662 272.250 L 1.167 271 0.662 269.750 L 0.158 268.500 0.158 271 M 264 291.072 L 228.500 292.895 172.500 295.463 L 116.500 298.031 90.183 299.205 L 63.865 300.378 62.183 301.642 L 60.500 302.907 68.740 319.203 L 76.981 335.500 91.107 362.500 L 105.233 389.500 139.717 455.500 L 174.201 521.500 176.028 523.400 L 177.855 525.300 228.678 522.632 L 279.500 519.964 301 518.907 L 322.500 517.850 324.297 515.757 L 326.093 513.663 351.547 468.957 L 377 424.251 377.613 421.186 L 378.226 418.121 367.228 396.811 L 356.230 375.500 334.998 334 L 313.766 292.500 312.228 290.750 L 310.690 289 305.095 289.125 L 299.500 289.250 264 291.072 M 622.738 290.750 L 621.166 292.500 603.961 326 L 586.756 359.500 572.045 388 L 557.334 416.500 556.644 418.391 L 555.955 420.282 562.942 432.891 L 569.929 445.500 589.214 479.195 L 608.500 512.891 610.500 515.423 L 612.500 517.955 652.500 519.946 L 692.500 521.936 724.173 523.605 L 755.845 525.273 757.299 524.716 L 758.752 524.158 763.272 515.829 L 767.792 507.500 785.262 474 L 802.731 440.500 819.994 407.500 L 837.257 374.500 853.418 343.500 L 869.580 312.500 871.356 308.710 L 873.131 304.921 872.809 303.246 L 872.486 301.572 868.993 300.841 L 865.500 300.111 820 298.038 L 774.500 295.965 722 293.482 L 669.500 290.999 649 290.018 L 628.500 289.036 626.405 289.018 L 624.310 289 622.738 290.750 M 421.034 434.673 L 411.568 435.081 409.850 436.636 L 408.132 438.191 399.409 454.345 L 390.686 470.500 382.740 484.500 L 374.794 498.500 364.897 515.613 L 355 532.725 355 536.885 L 355 541.044 359.131 549.272 L 363.263 557.500 371.751 573 L 380.238 588.500 389.486 604.500 L 398.733 620.500 403.113 627.753 L 407.493 635.006 410.601 636.481 L 413.710 637.956 444.105 636.523 L 474.500 635.091 498.854 634.394 L 523.207 633.696 525.900 631.431 L 528.592 629.165 531.470 623.833 L 534.349 618.500 556.106 580.221 L 577.864 541.942 578.993 538.522 L 580.122 535.101 579.194 531.740 L 578.266 528.378 570.809 514.939 L 563.352 501.500 549.843 478.500 L 536.335 455.500 531.417 446.601 L 526.500 437.702 523.446 436.419 L 520.391 435.137 475.446 434.701 L 430.500 434.266 421.034 434.673 M 446.500 462.742 L 439.500 468.257 425.577 478.379 L 411.654 488.500 410.754 489.104 L 409.854 489.708 405.888 514.059 L 401.923 538.410 401.659 538.675 L 401.394 538.939 393.447 541.720 L 385.500 544.500 385.232 548.500 L 384.963 552.500 395.270 563.058 L 405.578 573.615 409.789 579.922 L 414 586.228 414 581.975 L 414 577.722 410.917 567.730 L 407.833 557.738 409.397 556.174 L 410.961 554.610 415.231 556.964 L 419.500 559.318 427.500 564.886 L 435.500 570.454 440.313 575.242 L 445.126 580.031 446.971 584.265 L 448.817 588.500 450.468 600 L 452.118 611.500 453.309 612.625 L 454.500 613.749 458.187 614.301 L 461.873 614.854 462.546 611.677 L 463.220 608.500 466.157 599.250 L 469.094 590 470.018 590 L 470.942 590 473.929 599.750 L 476.917 609.500 477.573 612.274 L 478.229 615.048 481.864 614.403 L 485.500 613.757 486.368 612.961 L 487.236 612.164 489.493 599.250 L 491.750 586.335 492.991 583.918 L 494.231 581.500 498.866 576.651 L 503.500 571.802 510.660 566.460 L 517.821 561.118 523.304 558.024 L 528.787 554.929 530.335 556.478 L 531.884 558.027 530.474 562.764 L 529.063 567.500 527.542 572.500 L 526.022 577.500 526.011 581.944 L 526 586.387 531.234 578.944 L 536.468 571.500 545.984 561.893 L 555.500 552.286 555 548.393 L 554.500 544.500 547.524 542.238 L 540.548 539.977 539.311 538.738 L 538.074 537.500 535.646 522.500 L 533.217 507.500 531.944 498.728 L 530.672 489.957 521.586 483.283 L 512.500 476.609 500 467.371 L 487.500 458.133 486.564 457.816 L 485.627 457.500 484.861 460.500 L 484.095 463.500 481.525 480 L 478.955 496.500 476.422 498.750 L 473.888 501 470.491 501 L 467.094 501 464.538 499.835 L 461.982 498.671 461.040 495.085 L 460.098 491.500 457.587 475.729 L 455.075 459.957 454.288 458.592 L 453.500 457.226 446.500 462.742 M 850.967 465.611 L 849.877 468.500 846.011 477.500 L 842.144 486.500 835.674 501.500 L 829.204 516.500 825.102 526.199 L 821 535.898 821 537.405 L 821 538.911 836.662 574.960 L 852.324 611.009 852.729 610.605 L 853.133 610.200 854.972 598.850 L 856.811 587.500 858.067 574.215 L 859.324 560.930 855.058 556.715 L 850.792 552.500 848.396 547.783 L 846 543.066 846 536.993 L 846 530.920 848.093 526.818 L 850.186 522.716 854.695 517.895 L 859.205 513.073 858.047 500.787 L 856.889 488.500 854.992 476.131 L 853.095 463.761 852.575 463.242 L 852.056 462.723 850.967 465.611 M 80.693 474.035 L 79.067 484.500 78.074 493.500 L 77.080 502.500 76.875 508.103 L 76.670 513.707 80.778 517.418 L 84.886 521.129 87.443 526.261 L 90 531.393 90 537.113 L 90 542.834 88.044 547.398 L 86.088 551.961 81.067 556.750 L 76.047 561.538 77.504 575.519 L 78.961 589.500 80.622 599.721 L 82.284 609.943 83.142 609.412 L 84 608.882 84 607.881 L 84 606.880 89.611 593.690 L 95.223 580.500 104.723 558.640 L 114.223 536.779 108.657 524.140 L 103.091 511.500 94.025 490.500 L 84.959 469.500 83.638 466.535 L 82.318 463.570 80.693 474.035 M 416.011 526.683 L 416.022 528.500 417.477 533.297 L 418.932 538.093 422.143 544.118 L 425.354 550.142 429.780 554.038 L 434.206 557.933 439.753 560.009 L 445.299 562.084 451.900 562.292 L 458.500 562.500 458.396 558.860 L 458.291 555.220 455.293 548.813 L 452.295 542.405 448.992 538.644 L 445.689 534.882 442 533 L 438.310 531.118 428.905 528.510 L 419.500 525.902 417.750 525.384 L 416 524.865 416.011 526.683 M 519 526.124 L 515.500 527.068 506.500 529.757 L 497.500 532.446 492.891 537.034 L 488.282 541.622 485.072 548.349 L 481.862 555.075 481.303 558.520 L 480.744 561.965 482.399 562.600 L 484.055 563.235 491.557 562.119 L 499.060 561.003 503.780 558.588 L 508.500 556.173 512.095 552.336 L 515.689 548.500 517.760 545 L 519.830 541.500 521.915 535.282 L 524 529.063 524 527.032 L 524 525 523.250 525.090 L 522.500 525.180 519 526.124 M 175.783 550.134 L 173.288 553.500 163.513 572.500 L 153.737 591.500 141.478 615 L 129.219 638.500 96.110 702.212 L 63 765.925 63 767.840 L 63 769.755 64.250 770.735 L 65.500 771.715 115 773.421 L 164.500 775.128 198 776.526 L 231.500 777.925 271.803 779.623 L 312.107 781.322 313.409 779.911 L 314.711 778.500 334.838 739.820 L 354.964 701.139 367.018 677.589 L 379.071 654.038 377.386 650.769 L 375.701 647.500 364.224 627 L 352.747 606.500 347.494 597.500 L 342.241 588.500 332.870 572.224 L 323.500 555.949 320 555.013 L 316.500 554.077 254 551.013 L 191.500 547.949 184.889 547.359 L 178.278 546.769 175.783 550.134 M 726.500 548.554 L 705.500 549.818 664 551.909 L 622.500 553.999 617.849 554.580 L 613.198 555.160 611.201 557.330 L 609.205 559.500 589.300 594.500 L 569.395 629.500 562.622 641.679 L 555.850 653.857 562.110 666.179 L 568.371 678.500 589.783 719.500 L 611.196 760.500 616.348 770.269 L 621.500 780.038 623.747 780.627 L 625.994 781.215 676.247 779.085 L 726.500 776.955 779.500 775.016 L 832.500 773.077 851 772.424 L 869.500 771.771 870.750 770.763 L 872 769.755 872 767.766 L 872 765.778 859.367 741.639 L 846.734 717.500 823.243 672.500 L 799.753 627.500 779.767 589 L 759.782 550.500 758.236 548.750 L 756.690 547 752.095 547.145 L 747.500 547.289 726.500 548.554 M 410.168 672.297 L 409.092 673.595 401.241 685.547 L 393.390 697.500 382.603 714.500 L 371.815 731.500 355.408 757 L 339.001 782.500 335.440 788.704 L 331.880 794.907 333.001 797.003 L 334.123 799.098 340.745 809.299 L 347.367 819.500 387.851 883 L 428.335 946.500 444.791 972.500 L 461.248 998.500 463.192 1001.250 L 465.136 1004 467.378 1004 L 469.621 1004 475.141 995.250 L 480.661 986.500 498.964 958 L 517.267 929.500 541.759 891 L 566.251 852.500 574.970 839 L 583.689 825.500 592.664 811.500 L 601.640 797.500 602.261 795.822 L 602.882 794.143 590.632 774.822 L 578.381 755.500 560.842 728 L 543.302 700.500 533.681 685.750 L 524.060 671 467.653 671 L 411.245 671 410.168 672.297 M -0 802 L -0 803.333 0.667 802.667 L 1.333 802 0.667 801.333 L 0 800.667 -0 802 M 218.034 838.423 L 225.500 845.175 237.264 854.094 L 249.028 863.012 255.264 860.908 L 261.500 858.804 267.633 859.192 L 273.767 859.580 277.937 862.340 L 282.107 865.099 285.055 869.748 L 288.004 874.397 289.223 880.301 L 290.443 886.206 301.971 891.751 L 313.500 897.296 326.919 902.646 L 340.337 907.996 340.686 907.648 L 341.034 907.299 331.391 894.400 L 321.747 881.500 307.869 862.368 L 293.990 843.237 292.608 842.090 L 291.226 840.943 256.363 836.990 L 221.500 833.038 216.034 832.354 L 210.568 831.670 218.034 838.423 M 712.500 833.049 L 706.500 833.844 674.891 837.422 L 643.281 841 642.735 841 L 642.189 841 637.262 847.750 L 632.335 854.500 619.978 871.500 L 607.621 888.500 600.336 898.250 L 593.051 908 593.776 908.005 L 594.500 908.011 608.500 902.439 L 622.500 896.866 632.971 891.683 L 643.442 886.500 644.104 885 L 644.765 883.500 645.943 878.500 L 647.120 873.500 650.129 868.805 L 653.138 864.110 658.265 861.555 L 663.393 859 668.721 859 L 674.050 859 679.660 860.972 L 685.270 862.944 688.385 860.775 L 691.500 858.606 699.383 852.657 L 707.266 846.708 715.700 839.354 L 724.134 832 721.317 832.127 L 718.500 832.254 712.500 833.049" stroke="none" fill="#000" fill-rule="evenodd"/></svg>