<svg xmlns="http://www.w3.org/2000/svg" width="488" height="454" viewBox="0 0 488 454" version="1.1"><path d="M 294 3.461 C 296.386 6.552, 301.400 10.939, 302.584 10.971 C 303.180 10.987, 305.617 12.800, 308 15 C 310.383 17.200, 312.728 19, 313.210 19 C 313.693 19, 315.301 20.125, 316.783 21.500 C 318.266 22.875, 320.047 24, 320.740 24 C 321.433 24, 323.768 25.688, 325.928 27.750 C 331.189 32.771, 332.743 34, 333.835 34 C 334.341 34, 335.366 34.736, 336.113 35.636 C 336.860 36.536, 339.245 38.392, 341.414 39.762 C 343.584 41.131, 346.511 43.320, 347.919 44.626 C 349.327 45.932, 350.968 47, 351.565 47 C 352.163 47, 353.708 48.125, 355 49.500 C 356.292 50.875, 357.853 52, 358.469 52 C 359.085 52, 361.519 53.800, 363.878 56 C 366.237 58.200, 368.580 60, 369.084 60 C 369.588 60, 370 60.450, 370 61 C 370 61.550, 370.696 62, 371.548 62 C 372.399 62, 374.087 63.038, 375.298 64.308 C 376.509 65.577, 379.105 67.587, 381.066 68.775 C 383.027 69.963, 385.459 71.850, 386.471 72.968 C 387.482 74.085, 389.092 75, 390.048 75 C 391.004 75, 392.045 75.675, 392.362 76.500 C 392.678 77.325, 393.397 78, 393.959 78 C 394.521 78, 394.210 77.100, 393.268 76 C 392.326 74.900, 390.825 74, 389.933 74 C 389.040 74, 387.460 73.061, 386.422 71.913 C 385.383 70.766, 382.501 68.462, 380.017 66.795 C 377.532 65.127, 375.140 63.141, 374.700 62.382 C 374.260 61.622, 373.341 61, 372.657 61 C 371.973 61, 368.752 58.750, 365.500 56 C 362.248 53.250, 359.169 51, 358.658 51 C 358.147 51, 356.687 49.875, 355.412 48.500 C 354.138 47.125, 352.592 46, 351.977 46 C 351.362 46, 348.724 44.200, 346.115 42 C 343.506 39.800, 340.875 38, 340.269 38 C 339.663 38, 339.017 37.634, 338.833 37.187 C 338.650 36.740, 335.800 34.399, 332.500 31.983 C 329.200 29.568, 325.680 26.559, 324.677 25.296 C 323.675 24.033, 322.043 23, 321.050 23 C 320.057 23, 318.634 22.264, 317.887 21.364 C 317.140 20.464, 314.723 18.593, 312.515 17.207 C 310.307 15.820, 307.586 13.631, 306.468 12.343 C 305.351 11.054, 303.952 10, 303.359 10 C 302.766 10, 300.081 8.091, 297.391 5.759 C 294.701 3.426, 293.175 2.392, 294 3.461 M 326.500 56.523 C 328.700 58.419, 330.860 59.977, 331.300 59.985 C 331.739 59.993, 333.721 61.575, 335.703 63.500 C 337.685 65.425, 339.875 67, 340.570 67 C 341.264 67, 343.763 68.800, 346.122 71 C 348.481 73.200, 350.915 75, 351.531 75 C 352.147 75, 353.708 76.125, 355 77.500 C 356.292 78.875, 357.967 80, 358.722 80 C 359.477 80, 361.087 81.038, 362.298 82.308 C 363.509 83.577, 366.105 85.587, 368.066 86.775 C 370.027 87.963, 372.459 89.850, 373.471 90.968 C 374.482 92.085, 375.877 93, 376.571 93 C 377.265 93, 379.763 94.800, 382.122 97 C 384.481 99.200, 386.881 101.012, 387.456 101.027 C 388.030 101.041, 390.451 102.841, 392.836 105.027 C 395.220 107.212, 397.583 109, 398.086 109 C 398.589 109, 399 110.714, 399 112.809 C 399 114.904, 399.661 117.491, 400.468 118.559 C 401.431 119.832, 401.947 122.952, 401.968 127.628 C 401.991 132.713, 402.430 135.112, 403.500 136 C 404.446 136.785, 405 136.852, 405 136.181 C 405 135.597, 404.550 134.840, 404 134.500 C 403.450 134.160, 402.986 130.646, 402.968 126.691 C 402.947 121.959, 402.434 118.836, 401.468 117.559 C 400.661 116.491, 400 114.006, 400 112.036 C 400 108.952, 399.502 108.187, 396.411 106.522 C 394.437 105.459, 392.010 103.557, 391.017 102.295 C 390.024 101.033, 388.581 100, 387.809 100 C 387.037 100, 384.648 98.200, 382.500 96 C 380.352 93.800, 377.992 92, 377.255 92 C 376.519 92, 374.923 91.052, 373.708 89.892 C 372.494 88.733, 369.925 86.767, 368 85.522 C 366.075 84.278, 363.643 82.301, 362.595 81.130 C 361.547 79.958, 359.886 79, 358.904 79 C 357.922 79, 356.834 78.540, 356.486 77.978 C 356.139 77.416, 353.300 75.086, 350.177 72.801 C 347.055 70.515, 344.140 68.050, 343.700 67.323 C 343.260 66.595, 342.107 66, 341.137 66 C 340.168 66, 338.052 64.618, 336.437 62.930 C 334.822 61.241, 331.925 58.896, 330 57.717 C 328.075 56.539, 325.905 54.996, 325.179 54.287 C 324.452 53.579, 323.552 53.017, 323.179 53.038 C 322.805 53.058, 324.300 54.627, 326.500 56.523 M 58.659 152 C 58.222 153.925, 57.556 158.650, 57.178 162.500 C 56.799 166.350, 56.074 170.150, 55.566 170.944 C 55.058 171.739, 54.260 175.789, 53.793 179.944 C 53.326 184.100, 52.605 190.425, 52.191 194 C 51.777 197.575, 50.890 201.483, 50.219 202.684 C 49.549 203.886, 49 207.565, 49 210.861 C 49 217.068, 46.540 219.923, 41.096 220.032 C 40.218 220.049, 38.626 220.724, 37.559 221.532 C 36.491 222.339, 34.605 223, 33.368 223 C 32.130 223, 30.840 223.450, 30.500 224 C 30.160 224.550, 28.671 225.014, 27.191 225.032 C 25.711 225.049, 23.626 225.724, 22.559 226.532 C 21.491 227.339, 19.873 228, 18.963 228 C 12.558 228, 3.565 237.516, 2.679 245.229 C 2.346 248.128, 1.827 251.625, 1.526 253 C 1.052 255.164, 1.175 255.097, 2.444 252.500 C 3.250 250.850, 3.930 247.806, 3.955 245.736 C 4.023 240.080, 10.297 231, 14.137 231 C 15.097 231, 16.160 230.550, 16.500 230 C 16.840 229.450, 18.161 229, 19.437 229 C 20.712 229, 22.315 228.325, 23 227.500 C 23.685 226.675, 25.513 226, 27.063 226 C 28.614 226, 30.160 225.550, 30.500 225 C 30.840 224.450, 32.355 224, 33.868 224 C 35.380 224, 37.491 223.339, 38.559 222.532 C 39.626 221.724, 41.251 221.049, 42.169 221.032 C 47.353 220.933, 49.986 217.741, 50.029 211.500 C 50.052 208.200, 50.714 204.375, 51.500 203 C 52.301 201.599, 52.945 197.778, 52.965 194.309 C 52.984 190.904, 53.450 187.840, 54 187.500 C 54.550 187.160, 55.016 184.096, 55.035 180.691 C 55.055 177.222, 55.699 173.401, 56.500 172 C 57.325 170.557, 57.944 166.732, 57.965 162.950 C 57.984 159.347, 58.485 155.915, 59.078 155.322 C 59.671 154.729, 59.998 152.951, 59.804 151.372 C 59.453 148.510, 59.449 148.512, 58.659 152 M 428.039 152.191 C 428.018 153.671, 428.450 155.160, 429 155.500 C 429.550 155.840, 430 159.605, 430 163.868 C 430 169.134, 430.471 172.240, 431.468 173.559 C 432.381 174.766, 432.948 177.840, 432.968 181.691 C 432.986 185.096, 433.450 188.160, 434 188.500 C 434.550 188.840, 435 192.209, 435 195.988 C 435 200.761, 435.458 203.315, 436.500 204.357 C 437.488 205.345, 438.002 207.844, 438.006 211.679 C 438.013 217.731, 440.692 220.934, 445.831 221.032 C 446.749 221.049, 448.374 221.724, 449.441 222.532 C 450.509 223.339, 452.646 224, 454.191 224 C 455.736 224, 457 224.450, 457 225 C 457 225.550, 458.295 226, 459.878 226 C 461.460 226, 463.315 226.675, 464 227.500 C 464.685 228.325, 466.513 229, 468.063 229 C 469.614 229, 471.160 229.450, 471.500 230 C 471.840 230.550, 472.574 231, 473.130 231 C 473.687 231, 473.468 230.325, 472.643 229.500 C 471.818 228.675, 470.041 228, 468.694 228 C 467.347 228, 465.685 227.325, 465 226.500 C 464.315 225.675, 462.487 225, 460.937 225 C 459.386 225, 457.840 224.550, 457.500 224 C 457.160 223.450, 455.870 223, 454.632 223 C 453.395 223, 451.509 222.339, 450.441 221.532 C 449.374 220.724, 447.375 220.034, 446 219.999 C 441.365 219.878, 439.004 216.805, 438.965 210.840 C 438.945 207.903, 438.286 204.375, 437.500 203 C 436.699 201.599, 436.055 197.778, 436.035 194.309 C 436.016 190.904, 435.550 187.840, 435 187.500 C 434.450 187.160, 434 184.488, 434 181.563 C 434 178.638, 433.325 174.629, 432.500 172.654 C 431.675 170.680, 431 166.176, 431 162.647 C 431 159.117, 430.343 154.715, 429.539 152.865 C 428.112 149.579, 428.077 149.563, 428.039 152.191 M 373.183 235.217 C 372.533 235.868, 372 237.155, 372 238.078 C 372 239, 371.325 240.315, 370.500 241 C 369.675 241.685, 369 243.090, 369 244.122 C 369 245.155, 368.550 246, 368 246 C 367.450 246, 367 246.845, 367 247.878 C 367 248.910, 366.325 250.315, 365.500 251 C 364.675 251.685, 364 253.090, 364 254.122 C 364 255.155, 363.652 256, 363.227 256 C 362.802 256, 361.606 257.577, 360.568 259.504 C 358.218 263.867, 339.668 282, 337.554 282 C 336.699 282, 336 282.450, 336 283 C 336 283.550, 335.155 284, 334.122 284 C 333.090 284, 331.685 284.675, 331 285.500 C 330.315 286.325, 328.910 287, 327.878 287 C 326.845 287, 326 287.450, 326 288 C 326 288.550, 324.705 289, 323.122 289 C 321.540 289, 319.685 289.675, 319 290.500 C 318.245 291.410, 316.055 292, 313.437 292 C 311.061 292, 308.877 292.389, 308.583 292.865 C 308.010 293.793, 291.892 295.229, 280.655 295.355 C 273.843 295.431, 273.824 295.438, 276.941 296.914 C 279.653 298.198, 280.840 298.213, 285.787 297.026 C 288.929 296.271, 295.325 295.475, 300 295.256 C 304.675 295.038, 308.928 294.441, 309.450 293.930 C 309.973 293.418, 312.055 293, 314.078 293 C 316.127 293, 318.306 292.336, 319 291.500 C 319.685 290.675, 321.513 290, 323.063 290 C 324.614 290, 326.160 289.550, 326.500 289 C 326.840 288.450, 327.943 288, 328.952 288 C 329.961 288, 331.045 287.325, 331.362 286.500 C 331.678 285.675, 332.635 285, 333.488 285 C 336.946 285, 360 265.385, 360 262.444 C 360 262.029, 361.125 260.214, 362.500 258.411 C 363.875 256.608, 365 254.477, 365 253.674 C 365 252.871, 365.675 251.955, 366.500 251.638 C 367.325 251.322, 368 250.175, 368 249.090 C 368 248.006, 368.450 246.840, 369 246.500 C 369.550 246.160, 370 245.057, 370 244.048 C 370 243.039, 370.675 241.955, 371.500 241.638 C 372.325 241.322, 373 239.961, 373 238.615 C 373 237.268, 373.563 235.966, 374.250 235.720 C 374.938 235.475, 375.245 234.995, 374.933 234.654 C 374.622 234.312, 373.834 234.566, 373.183 235.217 M 463 264.500 C 463 271.053, 462.684 273, 461.622 273 C 459.935 273, 413 319.718, 413 321.397 C 413 322.057, 411.200 324.470, 409 326.760 C 406.800 329.049, 405 331.541, 405 332.296 C 405 333.051, 403.650 334.872, 402 336.342 C 400.350 337.813, 399 339.574, 398.999 340.258 C 398.999 340.941, 397.424 343.269, 395.499 345.432 C 393.575 347.594, 392 349.971, 392 350.713 C 392 351.455, 391.325 352.322, 390.500 352.638 C 389.675 352.955, 389 354.328, 389 355.690 C 389 357.226, 388.525 358.009, 387.750 357.753 C 386.151 357.223, 385.444 340.156, 386.959 338.641 C 387.531 338.069, 388 335.751, 388 333.491 C 388 331.231, 388.661 328.509, 389.468 327.441 C 390.276 326.374, 390.951 324.064, 390.968 322.309 C 390.986 320.554, 391.450 318.840, 392 318.500 C 392.550 318.160, 393 317.403, 393 316.819 C 393 316.148, 392.446 316.215, 391.500 317 C 390.675 317.685, 389.986 319.652, 389.968 321.372 C 389.951 323.093, 389.276 325.374, 388.468 326.441 C 387.661 327.509, 387 330.295, 387 332.632 C 387 334.970, 386.550 337.160, 386 337.500 C 384.198 338.613, 384.737 357.685, 386.590 358.396 C 388.591 359.164, 390 358.329, 390 356.374 C 390 355.545, 391.125 353.392, 392.500 351.589 C 393.875 349.786, 395 347.995, 395 347.608 C 395 347.221, 396.125 345.862, 397.500 344.588 C 398.875 343.313, 400 341.619, 400 340.822 C 400 340.026, 401.350 338.081, 403 336.500 C 404.650 334.919, 406 333.128, 406 332.519 C 406 331.910, 407.800 329.481, 410 327.122 C 412.200 324.763, 414 322.347, 414 321.755 C 414 319.877, 460.308 274, 462.203 274 C 463.799 274, 464 272.994, 464 265 C 464 260.050, 463.775 256, 463.500 256 C 463.225 256, 463 259.825, 463 264.500 M 130 264.416 C 130 265.618, 145.250 280, 146.525 280 C 147.202 280, 148.281 280.634, 148.924 281.408 C 149.566 282.182, 151.534 283.545, 153.296 284.436 C 155.058 285.326, 157.175 286.423, 158 286.872 C 162.735 289.451, 164.206 290, 166.379 290 C 167.703 290, 169.045 290.675, 169.362 291.500 C 169.740 292.485, 171.301 293, 173.910 293 C 176.094 293, 178.160 293.450, 178.500 294 C 178.840 294.550, 181.904 295.020, 185.309 295.044 C 188.714 295.068, 193.300 295.736, 195.500 296.529 C 210.150 301.807, 222.889 292.852, 215.578 282.414 C 214.795 281.297, 214.008 278.870, 213.828 277.019 C 213.642 275.117, 212.848 273.458, 212 273.202 C 210.789 272.837, 210.741 273.006, 211.750 274.075 C 212.438 274.804, 213.014 276.772, 213.032 278.450 C 213.049 280.127, 213.724 282.374, 214.532 283.441 C 221.629 292.825, 211.597 299.474, 196.339 295.500 C 193.171 294.675, 188.226 294, 185.349 294 C 182.472 294, 179.840 293.550, 179.500 293 C 179.160 292.450, 177.164 292, 175.063 292 C 172.889 292, 170.709 291.354, 170 290.500 C 169.315 289.675, 167.487 289, 165.937 289 C 164.386 289, 162.840 288.550, 162.500 288 C 162.160 287.450, 161.064 287, 160.063 287 C 159.063 287, 157.719 286.366, 157.076 285.592 C 156.434 284.818, 154.354 283.447, 152.454 282.545 C 150.554 281.644, 149 280.477, 149 279.953 C 149 279.429, 148.320 279, 147.489 279 C 146.658 279, 142.383 275.565, 137.989 271.367 C 133.595 267.169, 130 264.041, 130 264.416 M 1 276.250 C 1 277.148, 1.450 278.160, 2 278.500 C 2.550 278.840, 3 279.932, 3 280.927 C 3 282.940, 10.465 290.841, 14.312 292.899 C 20.055 295.973, 63.467 341.621, 66.578 347.857 C 67.352 349.408, 68.888 351.494, 69.993 352.493 C 71.097 353.492, 72 355.118, 72 356.105 C 72 357.093, 72.563 358.260, 73.250 358.700 C 74.591 359.558, 75.722 361.397, 80.199 370 C 84.665 378.580, 88.391 383.472, 90.720 383.810 C 91.894 383.981, 93.393 384.768, 94.050 385.560 C 95.683 387.528, 104.353 387.484, 106 385.500 C 106.685 384.675, 108.090 384, 109.122 384 C 110.155 384, 111 383.580, 111 383.067 C 111 382.554, 111.787 381.864, 112.750 381.534 C 115.333 380.648, 121 372.467, 121 369.625 C 121 368.273, 121.529 366.990, 122.176 366.775 C 124.478 366.007, 127.109 338.709, 125.077 336.677 C 124.485 336.085, 124 333.426, 124 330.769 C 124 327.397, 123.547 325.763, 122.500 325.362 C 120.872 324.737, 120.452 321.457, 121.887 320.570 C 122.374 320.269, 123.322 320.682, 123.991 321.490 C 124.661 322.297, 128.873 325.554, 133.350 328.729 C 143.346 335.816, 159.342 351.094, 161.477 355.593 C 163.114 359.043, 165 360.898, 165 359.059 C 165 358.477, 164.550 358, 164 358 C 163.450 358, 163 357.175, 163 356.166 C 163 354.126, 142.545 333.363, 138.201 330.993 C 136.682 330.165, 134.355 328.477, 133.031 327.243 C 131.706 326.010, 130.273 325, 129.846 325 C 129.419 325, 127.492 323.615, 125.565 321.923 C 123.637 320.230, 121.596 319.132, 121.030 319.482 C 119.458 320.453, 119.804 324.988, 121.500 325.638 C 122.574 326.050, 123 327.729, 123 331.548 C 123 334.482, 123.450 337.160, 124 337.500 C 125.304 338.306, 125.304 352.694, 124 353.500 C 123.450 353.840, 123 356.511, 123 359.437 C 123 362.944, 122.489 365.179, 121.500 366 C 120.675 366.685, 120 368.142, 120 369.238 C 120 372.286, 113.422 380.572, 109.540 382.414 C 107.640 383.316, 105.814 384.491, 105.483 385.027 C 103.157 388.790, 86 382.120, 86 377.452 C 86 376.771, 85.325 375.955, 84.500 375.638 C 83.675 375.322, 83 374.149, 83 373.031 C 83 371.914, 82.550 371, 82 371 C 81.450 371, 81 370.155, 81 369.122 C 81 368.090, 80.325 366.685, 79.500 366 C 78.675 365.315, 78 364.201, 78 363.524 C 78 362.846, 76.875 361.078, 75.500 359.595 C 74.125 358.111, 73 356.224, 73 355.401 C 73 354.578, 71.875 352.862, 70.500 351.588 C 69.125 350.313, 68 348.626, 68 347.838 C 68 347.050, 66.200 344.648, 64 342.500 C 61.800 340.352, 60 338.029, 60 337.337 C 60 335.732, 15.375 291, 13.773 291 C 11.766 291, 4.002 282.719, 3.968 280.542 C 3.951 279.419, 3.276 277.626, 2.468 276.559 C 1.237 274.930, 1 274.881, 1 276.250 M 468.500 283.605 C 465.200 286.570, 462.019 288.997, 461.431 288.998 C 459.921 289.001, 428.009 321.595, 427.958 323.188 C 427.935 323.910, 425.689 326.750, 422.967 329.500 C 420.244 332.250, 418.013 334.962, 418.009 335.527 C 418.004 336.092, 416.215 338.342, 414.033 340.527 C 411.851 342.712, 410.051 345.209, 410.033 346.076 C 410.015 346.942, 408.875 348.708, 407.500 350 C 406.125 351.292, 405 352.763, 405 353.270 C 405 353.777, 403.988 355.601, 402.750 357.325 C 400.033 361.110, 398.411 363.787, 397.110 366.639 C 395.461 370.253, 389.891 376, 388.037 376 C 384.842 376, 377 368.166, 377 364.974 C 377 363.403, 376.550 361.840, 376 361.500 C 375.411 361.136, 375 355.176, 375 347 C 375 338.824, 375.411 332.864, 376 332.500 C 376.550 332.160, 377.014 330.221, 377.032 328.191 C 377.049 326.161, 377.724 323.626, 378.532 322.559 C 379.339 321.491, 380 319.391, 380 317.892 C 380 316.393, 380.461 314.938, 381.025 314.658 C 381.589 314.379, 381.476 314.263, 380.775 314.402 C 380.074 314.541, 379.361 316.048, 379.192 317.753 C 379.023 319.457, 378.235 321.390, 377.442 322.048 C 376.593 322.752, 376 325.022, 376 327.563 C 376 329.939, 375.550 332.160, 375 332.500 C 374.408 332.866, 374 339.010, 374 347.559 C 374 356.520, 374.379 362, 375 362 C 375.550 362, 376 363.254, 376 364.788 C 376 368.320, 384.431 377, 387.862 377 C 390.525 377, 397.932 369.469, 397.973 366.719 C 397.988 365.739, 398.675 364.678, 399.500 364.362 C 400.325 364.045, 401 363.013, 401 362.067 C 401 361.122, 402.125 359.292, 403.500 358 C 404.875 356.708, 406 354.994, 406 354.190 C 406 353.387, 407.125 351.687, 408.500 350.412 C 409.875 349.138, 411 347.381, 411 346.508 C 411 345.634, 412.800 343.208, 415 341.115 C 417.200 339.022, 419.019 336.677, 419.042 335.905 C 419.065 335.132, 421.311 332.250, 424.033 329.500 C 426.756 326.750, 428.987 323.964, 428.991 323.309 C 429.002 321.815, 459.695 291.036, 463.204 289 C 466.092 287.324, 475.334 278.988, 474.826 278.517 C 474.647 278.350, 471.800 280.640, 468.500 283.605 M 358.737 326 C 356.238 328.200, 353.700 330, 353.097 330 C 352.493 330, 352 330.450, 352 331 C 352 331.550, 351.560 332, 351.022 332 C 348.821 332, 325 355.913, 325 358.124 C 325 358.794, 324.212 360.229, 323.250 361.313 C 321.547 363.231, 321.560 363.246, 323.750 361.901 C 324.988 361.141, 326 359.910, 326 359.167 C 326 355.668, 356.319 326.918, 362.392 324.658 C 364.194 323.987, 364.248 324.377, 363.516 332.727 C 362.115 348.730, 363.004 363.525, 365.618 367.715 C 366.378 368.933, 367 370.797, 367 371.858 C 367 372.918, 367.675 374.045, 368.500 374.362 C 369.325 374.678, 370 374.501, 370 373.969 C 370 373.436, 369.550 373, 369 373 C 368.450 373, 368 371.930, 368 370.622 C 368 369.315, 367.382 367.732, 366.628 367.106 C 363.490 364.502, 363.123 329.082, 366.194 325.294 C 367.347 323.871, 366.431 322, 364.582 322 C 363.867 322, 361.237 323.800, 358.737 326 M 165 363.819 C 165 364.403, 165.450 365.160, 166 365.500 C 166.550 365.840, 167 368.821, 167 372.125 C 167 375.428, 167.530 379.114, 168.177 380.316 C 169.382 382.552, 170.731 392.051, 171.611 404.500 C 171.883 408.350, 172.757 412.918, 173.553 414.651 C 174.349 416.384, 175 420.745, 175 424.342 C 175 427.939, 175.450 431.160, 176 431.500 C 176.550 431.840, 177 433.051, 177 434.191 C 177 436.887, 180.789 443, 182.459 443 C 183.172 443, 184.315 443.675, 185 444.500 C 185.685 445.325, 187.090 446, 188.122 446 C 189.155 446, 190 446.450, 190 447 C 190 447.550, 191.475 448, 193.277 448 C 195.080 448, 197.451 448.627, 198.545 449.394 C 201.866 451.720, 231.384 454.016, 233.303 452.097 C 233.906 451.494, 235.132 451, 236.026 451 C 237.758 451, 241.458 447.440, 242.180 445.078 C 242.498 444.037, 243.670 444.580, 246.557 447.106 C 253.010 452.750, 254.546 453.197, 265.566 452.628 C 279.700 451.899, 286.190 450.980, 288.465 449.387 C 289.554 448.624, 291.893 448, 293.663 448 C 295.434 448, 297.160 447.550, 297.500 447 C 297.840 446.450, 298.947 446, 299.960 446 C 300.973 446, 303.827 443.946, 306.302 441.436 C 311.176 436.492, 311.484 435.488, 312.793 420.297 C 313.182 415.786, 314.063 411.534, 314.750 410.847 C 315.460 410.139, 316 407.120, 316 403.859 C 316 400.701, 316.450 397.840, 317 397.500 C 317.550 397.160, 318 396.403, 318 395.819 C 318 395.148, 317.446 395.215, 316.500 396 C 315.500 396.830, 314.989 399.122, 314.968 402.872 C 314.949 406.227, 314.343 409.284, 313.468 410.441 C 312.491 411.733, 312 414.806, 312 419.632 C 312 423.620, 311.550 427.160, 311 427.500 C 310.450 427.840, 310 429.955, 310 432.200 C 310 436.480, 303.061 445, 299.574 445 C 298.773 445, 297.840 445.450, 297.500 446 C 297.160 446.550, 295.164 447, 293.063 447 C 290.889 447, 288.709 447.646, 288 448.500 C 287.179 449.489, 284.944 450, 281.437 450 C 278.511 450, 275.840 450.450, 275.500 451 C 272.957 455.115, 251.736 451.460, 246.665 446.034 C 243.621 442.776, 241 442.067, 241 444.500 C 241 446.629, 237.359 450, 235.059 450 C 233.991 450, 232.840 450.450, 232.500 451 C 232.160 451.550, 228.110 452, 223.500 452 C 218.890 452, 214.840 451.550, 214.500 451 C 214.160 450.450, 211.096 449.986, 207.691 449.968 C 203.840 449.948, 200.766 449.381, 199.559 448.468 C 198.491 447.661, 196.155 447, 194.368 447 C 192.580 447, 190.840 446.550, 190.500 446 C 190.160 445.450, 189.061 445, 188.059 445 C 185.080 445, 178 437.216, 178 433.941 C 178 432.389, 177.550 430.840, 177 430.500 C 176.450 430.160, 176 426.939, 176 423.342 C 176 419.745, 175.349 415.384, 174.553 413.651 C 173.757 411.918, 172.885 407.350, 172.616 403.500 C 171.675 390.026, 170.151 379.550, 169.080 379.193 C 168.448 378.983, 168 376.015, 168 372.039 C 168 367.220, 167.564 364.883, 166.500 364 C 165.554 363.215, 165 363.148, 165 363.819 M 298.250 365.720 C 297.424 366.015, 296.989 368.429, 296.968 372.833 C 296.948 377.103, 296.409 380.198, 295.468 381.441 C 294.541 382.667, 294 385.685, 294 389.632 C 294 393.070, 293.550 396.160, 293 396.500 C 292.450 396.840, 292 399.930, 292 403.368 C 292 407.315, 291.459 410.333, 290.532 411.559 C 289.723 412.628, 289.035 415.746, 289 418.500 C 288.914 425.251, 287.412 427, 281.699 427 C 279.179 427, 276.840 427.450, 276.500 428 C 273.581 432.722, 263.085 427.947, 263.032 421.872 C 263.014 419.877, 262.325 417.685, 261.500 417 C 260.585 416.240, 260 414.049, 260 411.378 C 260 408.970, 259.550 407, 259 407 C 258.450 407, 258 405.511, 258 403.691 C 258 401.871, 257.339 399.509, 256.532 398.441 C 255.724 397.374, 255.049 394.921, 255.032 392.991 C 255.009 390.449, 254.380 389.100, 252.750 388.099 C 250.560 386.754, 250.547 386.769, 252.250 388.687 C 253.212 389.771, 254 391.999, 254 393.638 C 254 395.277, 254.661 397.491, 255.468 398.559 C 256.276 399.626, 256.951 401.936, 256.968 403.691 C 256.986 405.446, 257.450 407.160, 258 407.500 C 258.550 407.840, 259 410.061, 259 412.437 C 259 415.055, 259.590 417.245, 260.500 418 C 261.342 418.699, 262 420.878, 262 422.967 C 262 428.829, 274.580 433.725, 277.500 429 C 277.840 428.450, 280.016 428, 282.337 428 C 287.914 428, 290 425.599, 290 419.180 C 290 416.510, 290.651 413.522, 291.468 412.441 C 292.381 411.234, 292.948 408.160, 292.968 404.309 C 292.986 400.904, 293.450 397.840, 294 397.500 C 294.550 397.160, 295 393.814, 295 390.063 C 295 385.222, 295.435 382.884, 296.500 382 C 297.564 381.117, 298 378.780, 298 373.961 C 298 369.430, 298.416 367.018, 299.250 366.720 C 299.938 366.475, 300.275 366.049, 300 365.774 C 299.725 365.499, 298.938 365.475, 298.250 365.720 M 310.160 368.691 C 310.072 370.446, 309.550 372.160, 309 372.500 C 308.450 372.840, 308 375.691, 308 378.837 C 308 382.129, 307.404 385.406, 306.595 386.561 C 305.822 387.664, 304.939 391.477, 304.632 395.034 C 303.352 409.876, 302.380 416.623, 301.225 418.684 C 300.551 419.886, 300 423.303, 300 426.279 C 300 431.586, 298.158 435, 295.294 435 C 294.717 435, 293.685 435.675, 293 436.500 C 292.245 437.410, 290.055 438, 287.437 438 C 285.061 438, 282.840 438.450, 282.500 439 C 282.160 439.550, 279.440 440, 276.455 440 C 273.471 440, 269.036 440.533, 266.601 441.184 C 259.518 443.079, 254 441.036, 254 436.519 C 254 434.648, 253.550 432.840, 253 432.500 C 252.450 432.160, 252 429.970, 252 427.632 C 252 425.295, 251.339 422.509, 250.532 421.441 C 249.724 420.374, 249.049 418.064, 249.032 416.309 C 249.014 414.554, 248.550 412.840, 248 412.500 C 247.450 412.160, 247 410.820, 247 409.523 C 247 405.904, 245.966 404, 244 404 C 241.955 404, 241 405.916, 241 410.023 C 241 411.595, 240.550 413.160, 240 413.500 C 239.450 413.840, 239 415.805, 239 417.868 C 239 419.930, 238.339 422.491, 237.532 423.559 C 236.724 424.626, 236.049 426.873, 236.032 428.550 C 236.014 430.227, 235.438 432.196, 234.750 432.925 C 233.741 433.994, 233.789 434.163, 235 433.798 C 235.848 433.542, 236.642 431.883, 236.828 429.981 C 237.008 428.130, 237.795 425.703, 238.578 424.586 C 239.360 423.469, 240 420.945, 240 418.977 C 240 417.010, 240.420 414.972, 240.933 414.450 C 241.446 413.928, 242.009 411.700, 242.183 409.500 C 242.610 404.110, 245.369 403.920, 245.810 409.250 C 245.981 411.313, 246.544 413, 247.060 413 C 247.577 413, 248 414.745, 248 416.878 C 248 419.104, 248.639 421.285, 249.500 422 C 250.454 422.791, 251 425, 251 428.063 C 251 430.714, 251.450 433.160, 252 433.500 C 252.550 433.840, 253 435.397, 253 436.960 C 253 442.346, 260.647 445.299, 267.346 442.500 C 269.320 441.675, 273.650 441, 276.968 441 C 280.323 441, 283 440.556, 283 440 C 283 439.450, 284.970 439, 287.378 439 C 290.049 439, 292.240 438.415, 293 437.500 C 293.685 436.675, 294.860 436, 295.611 436 C 299.098 436, 300.999 432.677, 301.032 426.528 C 301.051 422.821, 301.629 419.753, 302.532 418.559 C 303.486 417.297, 304 414.255, 304 409.868 C 304 406.155, 304.450 402.840, 305 402.500 C 305.550 402.160, 306 398.814, 306 395.063 C 306 390.222, 306.435 387.884, 307.500 387 C 308.511 386.161, 309 383.904, 309 380.078 C 309 376.955, 309.483 373.917, 310.073 373.327 C 310.663 372.737, 310.960 370.735, 310.733 368.877 C 310.320 365.500, 310.320 365.500, 310.160 368.691" stroke="none" fill="#000" fill-rule="evenodd"/><path d="M 198.500 2 C 198.160 2.550, 197.031 3, 195.991 3 C 194.950 3, 193.740 3.563, 193.300 4.252 C 192.860 4.940, 191.186 6.178, 189.580 7.002 C 187.974 7.826, 184.900 10.188, 182.748 12.250 C 180.597 14.313, 178.290 16, 177.621 16 C 176.953 16, 174.648 17.800, 172.500 20 C 170.352 22.200, 167.980 24, 167.230 24 C 166.480 24, 164.433 25.477, 162.683 27.283 C 160.932 29.089, 158.150 31.415, 156.500 32.454 C 154.850 33.492, 151.446 36.065, 148.936 38.171 C 146.425 40.277, 144.002 42, 143.550 42 C 143.099 42, 141.774 43.013, 140.607 44.250 C 139.439 45.487, 137.363 47.080, 135.992 47.789 C 134.621 48.498, 131.977 50.410, 130.114 52.039 C 128.252 53.668, 126.318 55, 125.815 55 C 125.312 55, 123.279 56.575, 121.297 58.500 C 119.315 60.425, 117.125 62, 116.430 62 C 115.736 62, 113.237 63.800, 110.878 66 C 108.519 68.200, 106.039 70, 105.367 70 C 104.695 70, 103.307 71.013, 102.282 72.250 C 100.428 74.490, 97.857 76.407, 95 77.682 C 94.175 78.050, 92.509 79.397, 91.298 80.675 C 90.087 81.954, 88.432 83, 87.620 83 C 86.809 83, 85.325 84.040, 84.323 85.310 C 83.320 86.581, 79.760 89.619, 76.410 92.060 C 73.061 94.502, 70.488 96.995, 70.694 97.600 C 70.899 98.205, 70.377 99.272, 69.533 99.972 C 68.603 100.744, 68 102.889, 68 105.422 C 68 107.720, 67.476 110.124, 66.836 110.764 C 66.197 111.403, 65.750 113.974, 65.845 116.475 C 65.940 118.977, 65.338 122.648, 64.509 124.634 C 63.679 126.620, 63 130.834, 63 134 C 63 137.896, 62.515 140.157, 61.500 141 C 60.456 141.866, 60 144.167, 60 148.563 C 60 152.039, 59.550 155.160, 59 155.500 C 58.450 155.840, 57.984 159.129, 57.965 162.809 C 57.944 166.713, 57.334 170.541, 56.500 172 C 55.699 173.401, 55.055 177.222, 55.035 180.691 C 55.016 184.096, 54.550 187.160, 54 187.500 C 53.450 187.840, 52.984 190.904, 52.965 194.309 C 52.945 197.778, 52.301 201.599, 51.500 203 C 50.714 204.375, 50.052 208.200, 50.029 211.500 C 49.986 217.741, 47.353 220.933, 42.169 221.032 C 41.251 221.049, 39.626 221.724, 38.559 222.532 C 37.491 223.339, 35.380 224, 33.868 224 C 32.355 224, 30.840 224.450, 30.500 225 C 30.160 225.550, 28.614 226, 27.063 226 C 25.513 226, 23.685 226.675, 23 227.500 C 22.315 228.325, 20.712 229, 19.437 229 C 18.161 229, 16.840 229.450, 16.500 230 C 16.160 230.550, 15.097 231, 14.137 231 C 10.392 231, 4 240.094, 4 245.421 C 4 247.318, 3.509 250.137, 2.908 251.685 C 1.451 255.441, 1.436 275.836, 2.889 277.289 C 3.500 277.900, 4 279.305, 4 280.412 C 4 282.630, 11.663 291, 13.694 291 C 15.348 291, 60 335.682, 60 337.337 C 60 338.029, 61.800 340.352, 64 342.500 C 66.200 344.648, 68 347.050, 68 347.838 C 68 348.626, 69.125 350.313, 70.500 351.588 C 71.875 352.862, 73 354.578, 73 355.401 C 73 356.224, 74.125 358.111, 75.500 359.595 C 76.875 361.078, 78 362.846, 78 363.524 C 78 364.201, 78.675 365.315, 79.500 366 C 80.325 366.685, 81 368.090, 81 369.122 C 81 370.155, 81.450 371, 82 371 C 82.550 371, 83 371.914, 83 373.031 C 83 374.149, 83.675 375.322, 84.500 375.638 C 85.325 375.955, 86 376.771, 86 377.452 C 86 382.120, 103.157 388.790, 105.483 385.027 C 105.814 384.491, 107.640 383.316, 109.540 382.414 C 113.422 380.572, 120 372.286, 120 369.238 C 120 368.142, 120.675 366.685, 121.500 366 C 122.489 365.179, 123 362.944, 123 359.437 C 123 356.511, 123.450 353.840, 124 353.500 C 125.304 352.694, 125.304 338.306, 124 337.500 C 123.450 337.160, 123 334.482, 123 331.548 C 123 327.729, 122.574 326.050, 121.500 325.638 C 119.804 324.988, 119.458 320.453, 121.030 319.482 C 121.596 319.132, 123.637 320.230, 125.565 321.923 C 127.492 323.615, 129.419 325, 129.846 325 C 130.273 325, 131.706 326.010, 133.031 327.243 C 134.355 328.477, 136.682 330.165, 138.201 330.993 C 142.545 333.363, 163 354.126, 163 356.166 C 163 357.175, 163.450 358, 164 358 C 164.550 358, 165 359.070, 165 360.378 C 165 361.685, 165.675 363.315, 166.500 364 C 167.564 364.883, 168 367.220, 168 372.039 C 168 376.015, 168.448 378.983, 169.080 379.193 C 170.151 379.550, 171.675 390.026, 172.616 403.500 C 172.885 407.350, 173.757 411.918, 174.553 413.651 C 175.349 415.384, 176 419.745, 176 423.342 C 176 426.939, 176.450 430.160, 177 430.500 C 177.550 430.840, 178 432.389, 178 433.941 C 178 437.216, 185.080 445, 188.059 445 C 189.061 445, 190.160 445.450, 190.500 446 C 190.840 446.550, 192.580 447, 194.368 447 C 196.155 447, 198.491 447.661, 199.559 448.468 C 200.766 449.381, 203.840 449.948, 207.691 449.968 C 211.096 449.986, 214.160 450.450, 214.500 451 C 215.306 452.304, 231.694 452.304, 232.500 451 C 232.840 450.450, 233.991 450, 235.059 450 C 237.359 450, 241 446.629, 241 444.500 C 241 442.067, 243.621 442.776, 246.665 446.034 C 251.736 451.460, 272.957 455.115, 275.500 451 C 275.840 450.450, 278.511 450, 281.437 450 C 284.944 450, 287.179 449.489, 288 448.500 C 288.709 447.646, 290.889 447, 293.063 447 C 295.164 447, 297.160 446.550, 297.500 446 C 297.840 445.450, 298.773 445, 299.574 445 C 303.061 445, 310 436.480, 310 432.200 C 310 429.955, 310.450 427.840, 311 427.500 C 311.550 427.160, 312 423.620, 312 419.632 C 312 414.806, 312.491 411.733, 313.468 410.441 C 314.338 409.292, 314.949 406.236, 314.968 402.950 C 314.986 399.898, 315.532 396.868, 316.183 396.217 C 316.865 395.535, 317.266 392.801, 317.129 389.767 C 316.972 386.281, 317.407 383.824, 318.414 382.500 C 319.360 381.258, 319.948 378.308, 319.968 374.715 C 319.988 371.165, 320.613 367.994, 321.586 366.509 C 322.459 365.177, 322.914 363.669, 322.597 363.157 C 322.281 362.645, 322.692 361.671, 323.511 360.991 C 324.330 360.311, 325 359.114, 325 358.330 C 325 355.959, 348.680 332, 351.022 332 C 351.560 332, 352 331.550, 352 331 C 352 330.450, 352.493 330, 353.097 330 C 353.700 330, 356.238 328.200, 358.737 326 C 361.237 323.800, 363.867 322, 364.582 322 C 366.431 322, 367.347 323.871, 366.194 325.294 C 363.123 329.082, 363.490 364.502, 366.628 367.106 C 367.382 367.732, 368 369.315, 368 370.622 C 368 371.930, 368.337 373.005, 368.750 373.011 C 369.163 373.018, 370.360 374.818, 371.411 377.011 C 372.615 379.524, 374.002 381, 375.161 381 C 376.172 381, 377 381.450, 377 382 C 377 382.550, 377.845 383, 378.878 383 C 379.910 383, 381.315 383.675, 382 384.500 C 383.701 386.550, 393.299 386.550, 395 384.500 C 395.685 383.675, 396.897 383, 397.694 383 C 399.791 383, 402 380.472, 402 378.071 C 402 376.932, 402.416 376, 402.924 376 C 403.433 376, 405.335 373.075, 407.151 369.500 C 408.967 365.925, 410.801 363, 411.226 363 C 411.652 363, 412.013 362.212, 412.028 361.250 C 412.043 360.288, 413.316 358.265, 414.856 356.755 C 416.396 355.245, 418.296 352.774, 419.078 351.263 C 419.860 349.752, 421.512 347.561, 422.750 346.393 C 423.988 345.226, 425 343.630, 425 342.848 C 425 342.065, 427.297 339.192, 430.103 336.462 C 432.910 333.733, 436.895 329.250, 438.957 326.500 C 443.898 319.913, 463.348 300.209, 468.830 296.238 C 477.132 290.224, 484 283.213, 484 280.751 C 484 279.458, 484.483 277.917, 485.074 277.326 C 485.712 276.688, 486.148 271.685, 486.148 265 C 486.148 258.315, 485.712 253.312, 485.074 252.674 C 484.483 252.083, 484 249.263, 484 246.407 C 484 242.620, 483.577 241.052, 482.437 240.614 C 481.577 240.284, 481.160 239.550, 481.511 238.982 C 482.313 237.684, 475.738 231, 473.659 231 C 472.811 231, 471.840 230.550, 471.500 230 C 471.160 229.450, 469.614 229, 468.063 229 C 466.513 229, 464.685 228.325, 464 227.500 C 463.315 226.675, 461.460 226, 459.878 226 C 458.295 226, 457 225.550, 457 225 C 457 224.450, 455.736 224, 454.191 224 C 452.646 224, 450.509 223.339, 449.441 222.532 C 448.374 221.724, 446.749 221.049, 445.831 221.032 C 440.692 220.934, 438.013 217.731, 438.006 211.679 C 438.002 207.844, 437.488 205.345, 436.500 204.357 C 435.458 203.315, 435 200.761, 435 195.988 C 435 192.209, 434.550 188.840, 434 188.500 C 433.450 188.160, 432.986 185.096, 432.968 181.691 C 432.948 177.840, 432.381 174.766, 431.468 173.559 C 430.471 172.240, 430 169.134, 430 163.868 C 430 159.605, 429.550 155.840, 429 155.500 C 428.450 155.160, 428 152.070, 428 148.632 C 428 144.685, 427.459 141.667, 426.532 140.441 C 425.568 139.167, 425.053 136.047, 425.032 131.364 C 425.012 126.937, 424.420 123.142, 423.472 121.364 C 422.587 119.704, 422.037 116.499, 422.164 113.742 C 422.286 111.099, 421.854 108.454, 421.192 107.792 C 420.536 107.136, 420 105.395, 420 103.922 C 420 102.450, 419.310 100.672, 418.467 99.972 C 417.623 99.272, 417.082 98.253, 417.264 97.707 C 417.675 96.475, 411.682 90, 410.132 90 C 409.509 90, 409 89.550, 409 89 C 409 88.450, 408.403 88, 407.674 88 C 406.945 88, 405.292 86.875, 404 85.500 C 402.708 84.125, 401.147 83, 400.531 83 C 399.915 83, 397.481 81.200, 395.122 79 C 392.763 76.800, 390.265 75, 389.571 75 C 388.877 75, 387.482 74.085, 386.471 72.968 C 385.459 71.850, 383.027 69.963, 381.066 68.775 C 379.105 67.587, 376.509 65.577, 375.298 64.308 C 374.087 63.038, 372.399 62, 371.548 62 C 370.696 62, 370 61.550, 370 61 C 370 60.450, 369.588 60, 369.084 60 C 368.580 60, 366.237 58.200, 363.878 56 C 361.519 53.800, 359.085 52, 358.469 52 C 357.853 52, 356.292 50.875, 355 49.500 C 353.708 48.125, 352.163 47, 351.565 47 C 350.968 47, 349.327 45.932, 347.919 44.626 C 346.511 43.320, 343.584 41.131, 341.414 39.762 C 339.245 38.392, 336.860 36.536, 336.113 35.636 C 335.366 34.736, 334.341 34, 333.835 34 C 332.743 34, 331.189 32.771, 325.928 27.750 C 323.768 25.688, 321.433 24, 320.740 24 C 320.047 24, 318.266 22.875, 316.783 21.500 C 315.301 20.125, 313.693 19, 313.210 19 C 312.728 19, 310.383 17.200, 308 15 C 305.617 12.800, 303.168 11, 302.557 11 C 301.946 11, 299.658 9.215, 297.473 7.033 C 295.288 4.851, 292.739 3.051, 291.809 3.033 C 290.879 3.015, 289.840 2.550, 289.500 2 C 288.695 0.697, 278.305 0.697, 277.500 2 C 277.160 2.550, 276.226 3, 275.423 3 C 273.483 3, 267.506 9.237, 265.840 12.999 C 265.110 14.650, 264.172 16, 263.756 16 C 263.340 16, 263 17.295, 263 18.878 C 263 20.460, 262.325 22.315, 261.500 23 C 260.675 23.685, 260 25.727, 260 27.539 C 260 29.351, 259.515 30.995, 258.923 31.192 C 258.315 31.395, 257.770 34.558, 257.673 38.443 C 257.560 42.937, 257.065 45.479, 256.250 45.751 C 255.415 46.028, 255 48.399, 255 52.883 C 255 56.577, 254.505 60.095, 253.899 60.701 C 253.294 61.306, 252.709 65.079, 252.600 69.084 C 252.474 73.704, 251.962 76.513, 251.200 76.767 C 250.412 77.029, 250 79.678, 250 84.476 C 250 90.051, 249.644 91.923, 248.500 92.362 C 247.354 92.801, 247 94.679, 247 100.315 C 247 105.003, 246.430 108.835, 245.437 110.826 C 242.331 117.051, 240.621 115.647, 240.878 107.084 C 240.988 103.408, 240.528 100.761, 239.555 99.473 C 238.542 98.133, 238.053 95.039, 238.032 89.833 C 238.011 84.836, 237.587 82.029, 236.814 81.771 C 236.079 81.526, 235.522 78.581, 235.349 74.023 C 235.195 69.978, 234.604 66.204, 234.035 65.635 C 233.466 65.066, 232.986 61.653, 232.968 58.050 C 232.948 53.883, 232.402 50.794, 231.468 49.559 C 230.541 48.333, 230 45.315, 230 41.368 C 230 37.930, 229.550 34.840, 229 34.500 C 228.450 34.160, 228 31.707, 228 29.048 C 228 25.674, 227.547 24.040, 226.500 23.638 C 225.675 23.322, 225 22.175, 225 21.090 C 225 20.006, 224.550 18.840, 224 18.500 C 223.450 18.160, 222.988 17.121, 222.972 16.191 C 222.957 15.261, 221.607 13.188, 219.972 11.583 C 218.338 9.979, 217 8.368, 217 8.003 C 217 4.084, 200.518 -1.264, 198.500 2 M 199.903 11.061 C 198.581 12.194, 196.484 13.994, 195.242 15.061 C 194.001 16.127, 192.610 17, 192.152 17 C 191.693 17, 189.482 18.800, 187.238 21 C 184.993 23.200, 182.776 25, 182.310 25 C 181.844 25, 179.285 26.800, 176.623 29 C 173.960 31.200, 171.450 33, 171.045 33 C 170.639 33, 168.685 34.575, 166.703 36.500 C 164.721 38.425, 162.768 40, 162.364 40 C 161.960 40, 159.494 41.800, 156.885 44 C 154.276 46.200, 151.715 48, 151.194 48 C 150.673 48, 148.336 49.800, 146 52 C 143.664 54.200, 141.133 56, 140.376 56 C 139.619 56, 139 56.450, 139 57 C 139 57.550, 138.502 58, 137.894 58 C 137.286 58, 135.903 59.125, 134.821 60.500 C 133.740 61.875, 132.245 63, 131.499 63 C 130.753 63, 128.460 64.586, 126.404 66.525 C 124.349 68.464, 121.686 70.602, 120.488 71.275 C 116.691 73.410, 109.836 78.402, 106.788 81.250 C 105.170 82.763, 103.291 84, 102.612 84 C 101.933 84, 100.294 85.010, 98.969 86.243 C 97.645 87.477, 95.309 89.165, 93.779 89.993 C 84.755 94.880, 77 105.072, 77 112.046 C 77 116.790, 76.561 119.120, 75.500 120 C 74.441 120.879, 74 123.207, 74 127.922 C 74 131.595, 73.495 135.105, 72.877 135.723 C 72.259 136.341, 71.614 139.641, 71.444 143.056 C 71.274 146.471, 70.654 149.746, 70.067 150.333 C 69.480 150.920, 69 154.267, 69 157.771 C 69 162.102, 68.519 164.623, 67.500 165.643 C 66.455 166.688, 66 169.246, 66 174.071 C 66 178.024, 65.570 181, 65 181 C 64.424 181, 64 184.126, 64 188.378 C 64 193.715, 63.585 196.099, 62.500 197 C 61.433 197.886, 61 200.229, 61 205.122 C 61 209.041, 60.570 212, 60 212 C 59.447 212, 59 214.615, 59 217.845 C 59 223.904, 57.240 227, 53.794 227 C 52.942 227, 51.685 227.675, 51 228.500 C 50.315 229.325, 48.487 230, 46.937 230 C 45.386 230, 43.840 230.450, 43.500 231 C 43.160 231.550, 41.164 232, 39.063 232 C 36.889 232, 34.709 232.646, 34 233.500 C 33.315 234.325, 31.235 235, 29.378 235 C 27.520 235, 26 235.450, 26 236 C 26 236.550, 25.155 237, 24.122 237 C 23.090 237, 21.685 237.675, 21 238.500 C 20.315 239.325, 18.980 240, 18.033 240 C 8.649 240, 11.266 284.734, 20.664 284.971 C 22.307 285.012, 64 326.685, 64 328.287 C 64 329.012, 66.250 331.903, 69 334.711 C 71.750 337.520, 74.008 340.421, 74.017 341.159 C 74.027 341.896, 75.152 343.560, 76.517 344.855 C 77.883 346.150, 79 347.763, 79 348.438 C 79 349.114, 80.337 350.979, 81.972 352.583 C 83.607 354.187, 84.957 356.123, 84.972 356.885 C 84.987 357.647, 86.150 359.337, 87.556 360.640 C 88.962 361.943, 89.858 363.421, 89.547 363.924 C 89.236 364.427, 89.661 365.518, 90.491 366.348 C 91.321 367.178, 92.001 368.677, 92.003 369.679 C 92.004 370.680, 93.353 372.400, 95 373.500 C 96.647 374.600, 97.996 375.837, 97.997 376.250 C 98.008 379.064, 107.721 374.865, 109.003 371.492 C 109.484 370.228, 110.354 368.899, 110.938 368.538 C 111.522 368.177, 112 366.585, 112 365 C 112 363.415, 112.450 361.840, 113 361.500 C 114.630 360.493, 114.299 333.493, 112.640 332.116 C 111.867 331.474, 111.485 329.912, 111.756 328.496 C 112.019 327.120, 111.508 324.898, 110.616 323.537 C 109.727 322.180, 109 319.690, 109 318.004 C 109 316.150, 108.384 314.701, 107.443 314.340 C 106.586 314.011, 106.117 313.138, 106.400 312.400 C 106.683 311.662, 106.259 310.402, 105.458 309.600 C 104.656 308.799, 104 306.809, 104 305.178 C 104 303.466, 103.367 301.971, 102.500 301.638 C 101.601 301.293, 101 299.786, 101 297.876 C 101 294.853, 101.093 294.775, 102.829 296.345 C 103.835 297.255, 105.410 298, 106.329 298 C 107.248 298, 108 298.420, 108 298.933 C 108 299.446, 108.980 300.176, 110.177 300.556 C 111.374 300.936, 113.507 302.316, 114.917 303.624 C 116.326 304.931, 117.999 306, 118.635 306 C 119.270 306, 120.850 307.117, 122.145 308.483 C 123.440 309.848, 124.986 310.973, 125.580 310.983 C 126.174 310.992, 128.649 312.783, 131.080 314.963 C 133.511 317.143, 136.591 319.505, 137.924 320.213 C 139.257 320.921, 142.162 323.188, 144.379 325.250 C 146.597 327.313, 148.826 329, 149.332 329 C 151.064 329, 166.181 344.495, 168.112 348.250 C 169.173 350.313, 170.482 352, 171.020 352 C 171.559 352, 172 352.873, 172 353.941 C 172 355.009, 172.450 356.160, 173 356.500 C 173.550 356.840, 174 358.006, 174 359.090 C 174 360.175, 174.675 361.322, 175.500 361.638 C 176.514 362.028, 177 363.618, 177 366.548 C 177 368.932, 177.450 371.160, 178 371.500 C 178.550 371.840, 179 375.380, 179 379.368 C 179 384.194, 179.491 387.267, 180.468 388.559 C 181.437 389.840, 181.947 392.966, 181.968 397.750 C 181.986 401.895, 182.428 405, 183 405 C 183.570 405, 184 407.959, 184 411.878 C 184 416.771, 184.433 419.114, 185.500 420 C 186.510 420.838, 187 423.093, 187 426.900 C 187 431.059, 187.463 432.945, 188.750 434.028 C 193.029 437.627, 196.210 439, 200.265 439 C 202.649 439, 205.055 439.455, 205.610 440.010 C 209.411 443.811, 235.466 441.082, 234.644 436.969 C 234.261 435.056, 234.544 434.005, 235.543 433.622 C 236.399 433.293, 237.013 431.709, 237.032 429.781 C 237.049 427.977, 237.724 425.626, 238.532 424.559 C 239.339 423.491, 240 420.994, 240 419.009 C 240 417.024, 240.420 414.973, 240.933 414.450 C 241.446 413.928, 242.009 411.700, 242.183 409.500 C 242.610 404.110, 245.369 403.920, 245.810 409.250 C 245.981 411.313, 246.544 413, 247.060 413 C 247.577 413, 248 414.745, 248 416.878 C 248 419.104, 248.639 421.285, 249.500 422 C 250.454 422.791, 251 425, 251 428.063 C 251 430.714, 251.450 433.160, 252 433.500 C 252.550 433.840, 253 435.397, 253 436.960 C 253 442.346, 260.647 445.299, 267.346 442.500 C 269.320 441.675, 273.650 441, 276.968 441 C 280.323 441, 283 440.556, 283 440 C 283 439.450, 284.970 439, 287.378 439 C 290.049 439, 292.240 438.415, 293 437.500 C 293.685 436.675, 294.860 436, 295.611 436 C 299.098 436, 300.999 432.677, 301.032 426.528 C 301.051 422.821, 301.629 419.753, 302.532 418.559 C 303.486 417.297, 304 414.255, 304 409.868 C 304 406.155, 304.450 402.840, 305 402.500 C 305.550 402.160, 306 398.814, 306 395.063 C 306 390.222, 306.435 387.884, 307.500 387 C 308.519 386.154, 309 383.889, 309 379.937 C 309 376.736, 309.450 373.840, 310 373.500 C 310.550 373.160, 311 370.482, 311 367.548 C 311 363.729, 311.426 362.050, 312.500 361.638 C 313.325 361.322, 314 360.342, 314 359.460 C 314 358.578, 314.679 357.178, 315.509 356.348 C 316.339 355.518, 316.779 354.451, 316.486 353.977 C 316.193 353.504, 317.314 351.725, 318.977 350.024 C 320.640 348.323, 322 346.434, 322 345.827 C 322 344.420, 332.148 334.054, 333.554 334.023 C 334.134 334.010, 337.727 331.075, 341.538 327.500 C 345.349 323.925, 348.844 321, 349.304 321 C 349.765 321, 352.276 319.200, 354.885 317 C 357.494 314.800, 359.998 313, 360.450 313 C 360.901 313, 362.313 311.875, 363.588 310.500 C 364.862 309.125, 366.554 308, 367.347 308 C 368.141 308, 369.850 306.883, 371.145 305.517 C 372.440 304.152, 374.116 303.027, 374.868 303.017 C 375.620 303.008, 377.774 301.650, 379.653 300 C 383.007 297.055, 386 296.084, 386 297.941 C 386 298.459, 385.550 299.160, 385 299.500 C 384.450 299.840, 384 301.618, 384 303.452 C 384 305.604, 383.425 307.007, 382.378 307.408 C 381.191 307.864, 380.911 308.807, 381.335 310.925 C 381.739 312.943, 381.473 313.988, 380.457 314.378 C 379.643 314.690, 379 316.221, 379 317.846 C 379 319.446, 378.325 321.315, 377.500 322 C 376.590 322.755, 376 324.945, 376 327.563 C 376 329.939, 375.550 332.160, 375 332.500 C 373.654 333.332, 373.654 362, 375 362 C 375.550 362, 376 363.254, 376 364.788 C 376 368.320, 384.431 377, 387.862 377 C 390.525 377, 397.932 369.469, 397.973 366.719 C 397.988 365.739, 398.675 364.678, 399.500 364.362 C 400.325 364.045, 401 363.013, 401 362.067 C 401 361.122, 402.125 359.292, 403.500 358 C 404.875 356.708, 406 354.994, 406 354.190 C 406 353.387, 407.125 351.687, 408.500 350.412 C 409.875 349.138, 411 347.381, 411 346.508 C 411 345.634, 412.800 343.208, 415 341.115 C 417.200 339.022, 419.019 336.677, 419.042 335.905 C 419.065 335.132, 421.311 332.250, 424.033 329.500 C 426.756 326.750, 428.987 323.964, 428.991 323.309 C 429.002 321.815, 459.695 291.036, 463.204 289 C 479.632 279.468, 481.041 237, 464.929 237 C 463.318 237, 462 236.550, 462 236 C 462 235.450, 460.511 235, 458.691 235 C 456.871 235, 454.509 234.339, 453.441 233.532 C 452.374 232.724, 450.289 232.049, 448.809 232.032 C 447.329 232.014, 445.840 231.550, 445.500 231 C 445.160 230.450, 443.870 230, 442.632 230 C 441.395 230, 439.509 229.339, 438.441 228.532 C 437.374 227.724, 435.499 227.049, 434.276 227.032 C 431.167 226.987, 429 222.296, 429 215.609 C 429 212.589, 428.550 209.840, 428 209.500 C 427.450 209.160, 427 205.814, 427 202.063 C 427 197.222, 426.565 194.884, 425.500 194 C 424.435 193.116, 424 190.778, 424 185.937 C 424 182.186, 423.550 178.840, 423 178.500 C 422.450 178.160, 421.997 175.096, 421.994 171.691 C 421.990 168.156, 421.347 164.271, 420.494 162.636 C 419.633 160.984, 419 157.119, 419 153.508 C 419 149.161, 418.541 146.864, 417.500 146 C 416.417 145.101, 416 142.722, 416 137.437 C 416 133.411, 415.550 129.840, 415 129.500 C 414.450 129.160, 414 125.814, 414 122.063 C 414 117.222, 413.565 114.884, 412.500 114 C 411.585 113.240, 411 111.049, 411 108.378 C 411 105.970, 410.550 104, 410 104 C 409.450 104, 409 103.343, 409 102.540 C 409 101.029, 404.151 96, 402.693 96 C 402.239 96, 400.209 94.429, 398.183 92.509 C 396.157 90.588, 393.839 89.013, 393.032 89.009 C 392.224 89.004, 390.649 87.964, 389.532 86.699 C 388.414 85.433, 385.895 83.423, 383.934 82.231 C 381.973 81.040, 379.541 79.150, 378.529 78.032 C 377.518 76.915, 375.892 76, 374.918 76 C 373.943 76, 372.325 74.964, 371.323 73.697 C 370.320 72.430, 367.925 70.518, 366 69.447 C 364.075 68.376, 361.586 66.487, 360.468 65.250 C 359.351 64.013, 357.965 63, 357.388 63 C 356.811 63, 354.351 61.206, 351.920 59.014 C 349.489 56.822, 347.007 55.022, 346.403 55.014 C 345.800 55.006, 343.685 53.425, 341.703 51.500 C 339.721 49.575, 337.493 48, 336.753 48 C 336.012 48, 333.648 46.200, 331.500 44 C 329.352 41.800, 326.993 40, 326.258 40 C 325.524 40, 323.049 38.200, 320.760 36 C 318.470 33.800, 316.101 32, 315.495 32 C 314.888 32, 312.866 30.425, 311 28.500 C 309.134 26.575, 306.986 25, 306.225 25 C 305.465 25, 303.007 23.200, 300.762 21 C 298.518 18.800, 296.031 17, 295.235 17 C 294.439 17, 292.903 15.875, 291.821 14.500 C 290.740 13.125, 289.043 12, 288.050 12 C 287.057 12, 285.685 11.325, 285 10.500 C 282.498 7.486, 274 13.532, 274 18.327 C 274 19.662, 273.325 21.315, 272.500 22 C 271.675 22.685, 271 24.063, 271 25.063 C 271 26.064, 270.550 27.160, 270 27.500 C 269.450 27.840, 269 30.286, 269 32.937 C 269 36, 268.454 38.209, 267.500 39 C 266.454 39.868, 266 42.173, 266 46.622 C 266 50.207, 265.562 53, 265 53 C 264.424 53, 264 56.131, 264 60.393 C 264 66.042, 263.646 67.922, 262.500 68.362 C 261.352 68.802, 261 70.687, 261 76.385 C 261 81.125, 260.580 83.973, 259.846 84.218 C 259.131 84.456, 258.614 87.554, 258.486 92.361 C 258.374 96.628, 257.768 100.632, 257.141 101.259 C 256.497 101.903, 256 105.546, 256 109.617 C 256 113.787, 255.555 116.982, 254.946 117.185 C 254.366 117.378, 253.781 118.203, 253.647 119.018 C 252.576 125.513, 237.464 128.307, 234.818 122.500 C 234.192 121.125, 233.301 120, 232.839 120 C 232.378 120, 231.986 117.188, 231.968 113.750 C 231.948 109.847, 231.385 106.771, 230.468 105.559 C 229.451 104.214, 229 101.066, 229 95.309 C 229 90.436, 228.586 87, 228 87 C 227.424 87, 227 83.874, 227 79.622 C 227 74.285, 226.585 71.901, 225.500 71 C 224.417 70.101, 224 67.722, 224 62.437 C 224 58.411, 223.550 54.840, 223 54.500 C 222.450 54.160, 222 51.070, 222 47.632 C 222 43.685, 221.459 40.667, 220.532 39.441 C 219.724 38.374, 219.049 35.362, 219.032 32.750 C 219.014 30.137, 218.550 28, 218 28 C 217.450 28, 217 26.632, 217 24.960 C 217 22.559, 215.649 20.563, 210.571 15.460 C 203.384 8.238, 203.256 8.185, 199.903 11.061 M 283.667 26.667 C 283.300 27.033, 283 28.807, 283 30.608 C 283 32.409, 282.550 34.160, 282 34.500 C 281.450 34.840, 281 37.309, 281 39.988 C 281 42.983, 280.423 45.435, 279.500 46.357 C 278.481 47.377, 278 49.898, 278 54.229 C 278 57.753, 277.478 61.122, 276.832 61.768 C 276.142 62.458, 275.744 65.505, 275.859 69.218 C 275.985 73.272, 275.513 76.516, 274.527 78.364 C 273.625 80.056, 273 83.792, 273 87.492 C 273 91.839, 272.541 94.136, 271.500 95 C 270.456 95.866, 270 98.167, 270 102.563 C 270 106.039, 269.550 109.160, 269 109.500 C 268.450 109.840, 268 113.411, 268 117.437 C 268 122.722, 267.583 125.101, 266.500 126 C 265.675 126.685, 265 127.865, 265 128.622 C 265 130.404, 261.404 134, 259.622 134 C 258.865 134, 257.685 134.675, 257 135.500 C 256.315 136.325, 254.262 137, 252.437 137 C 250.611 137, 248.840 137.450, 248.500 138 C 248.160 138.550, 245.884 139, 243.441 139 C 240.998 139, 239 138.550, 239 138 C 239 137.450, 237.480 137, 235.622 137 C 233.765 137, 231.685 136.325, 231 135.500 C 230.315 134.675, 229.135 134, 228.378 134 C 226.596 134, 223 130.404, 223 128.622 C 223 127.865, 222.325 126.685, 221.500 126 C 220.482 125.156, 220 122.891, 220 118.961 C 220 115.774, 219.527 113.009, 218.949 112.816 C 218.371 112.624, 217.717 108.917, 217.495 104.579 C 217.273 100.241, 216.621 96.221, 216.046 95.646 C 215.471 95.071, 214.986 91.427, 214.968 87.550 C 214.947 82.942, 214.428 79.828, 213.468 78.559 C 212.514 77.297, 212 74.255, 212 69.868 C 212 66.155, 211.550 62.840, 211 62.500 C 210.450 62.160, 210 59.039, 210 55.563 C 210 51.167, 209.544 48.866, 208.500 48 C 207.511 47.179, 207 44.944, 207 41.437 C 207 38.511, 206.550 35.840, 206 35.500 C 205.450 35.160, 204.993 33.671, 204.985 32.191 C 204.943 24.842, 201.447 25.599, 190.865 35.250 C 188.603 37.313, 186.246 39.006, 185.626 39.012 C 185.007 39.019, 182.568 40.819, 180.207 43.012 C 177.845 45.206, 175.465 47, 174.918 47 C 174.371 47, 172.049 48.800, 169.760 51 C 167.470 53.200, 165.082 55, 164.452 55 C 163.822 55, 161.685 56.575, 159.703 58.500 C 157.721 60.425, 155.514 62.015, 154.800 62.033 C 154.085 62.051, 151.712 63.851, 149.527 66.033 C 147.342 68.215, 145.017 70, 144.361 70 C 143.705 70, 141.237 71.800, 138.878 74 C 136.519 76.200, 134.085 78, 133.469 78 C 132.853 78, 131.292 79.125, 130 80.500 C 128.708 81.875, 127.137 83, 126.507 83 C 125.878 83, 123.594 84.575, 121.432 86.499 C 119.269 88.424, 117.022 89.999, 116.437 89.999 C 115.852 90, 114.081 91.350, 112.500 93 C 110.919 94.650, 108.974 96, 108.178 96 C 107.381 96, 105.774 97.013, 104.607 98.250 C 103.439 99.487, 101.158 101.175, 99.538 102 C 93.006 105.326, 88.588 111.452, 88.872 116.790 C 89.054 120.221, 88.670 122.029, 87.565 122.946 C 86.450 123.872, 86 126.046, 86 130.508 C 86 134.119, 85.367 137.984, 84.506 139.636 C 83.685 141.211, 83.010 145.061, 83.006 148.191 C 83.003 151.321, 82.550 154.160, 82 154.500 C 81.450 154.840, 81 158.411, 81 162.437 C 81 167.722, 80.583 170.101, 79.500 171 C 78.401 171.912, 78 174.334, 78 180.063 C 78 184.364, 77.550 188.160, 77 188.500 C 76.450 188.840, 76 192.186, 76 195.937 C 76 200.778, 75.565 203.116, 74.500 204 C 73.454 204.868, 73 207.173, 73 211.622 C 73 215.207, 72.562 218, 72 218 C 71.426 218, 71 221.073, 71 225.218 C 71 232.663, 67.926 237.953, 64.389 236.596 C 63.716 236.338, 62.917 236.773, 62.614 237.563 C 62.310 238.357, 60.760 239, 59.154 239 C 57.554 239, 55.685 239.675, 55 240.500 C 54.315 241.325, 52.235 242, 50.378 242 C 48.520 242, 47 242.450, 47 243 C 47 243.550, 45.538 244.014, 43.750 244.032 C 41.962 244.049, 39.626 244.724, 38.559 245.532 C 37.491 246.339, 35.605 247, 34.368 247 C 33.130 247, 31.840 247.450, 31.500 248 C 31.160 248.550, 30.009 249, 28.941 249 C 27.360 249, 27 249.705, 27 252.800 C 27 254.890, 26.601 257.028, 26.113 257.550 C 21.743 262.230, 24.315 269.853, 32.908 277.691 C 37.618 281.986, 44.853 289.037, 48.985 293.361 C 53.118 297.684, 61.338 306.147, 67.250 312.167 C 73.163 318.188, 78 323.691, 78 324.398 C 78 325.104, 79.800 327.518, 82 329.762 C 84.200 332.007, 86 334.389, 86 335.057 C 86 335.724, 87.125 337.313, 88.500 338.588 C 89.875 339.862, 91 341.535, 91 342.306 C 91 343.077, 92.125 344.922, 93.500 346.405 C 94.875 347.889, 96 349.769, 96 350.583 C 96 351.397, 96.675 352.322, 97.500 352.638 C 98.325 352.955, 99 354.291, 99 355.607 C 99 357.067, 99.585 358, 100.500 358 C 102.276 358, 102.748 339.581, 101 338.500 C 100.450 338.160, 100 335.939, 100 333.563 C 100 330.945, 99.410 328.755, 98.500 328 C 97.675 327.315, 97 325.262, 97 323.437 C 97 321.611, 96.550 319.840, 96 319.500 C 95.450 319.160, 95 317.157, 95 315.048 C 95 312.562, 94.472 311.012, 93.500 310.638 C 92.613 310.298, 92 308.796, 92 306.960 C 92 305.253, 91.292 303.150, 90.428 302.285 C 89.435 301.292, 89.075 299.836, 89.452 298.334 C 89.859 296.715, 89.562 295.769, 88.525 295.371 C 86.602 294.633, 86.330 281.070, 88.200 279.200 C 90.003 277.397, 99.923 277.636, 100.638 279.500 C 100.955 280.325, 101.841 281, 102.607 281 C 103.373 281, 104 281.401, 104 281.892 C 104 282.382, 105.125 283.066, 106.500 283.411 C 107.875 283.756, 109 284.480, 109 285.019 C 109 285.559, 109.705 286, 110.567 286 C 111.428 286, 113.608 287.125, 115.411 288.500 C 117.214 289.875, 119.005 291, 119.392 291 C 119.779 291, 121.138 292.125, 122.412 293.500 C 123.687 294.875, 125.357 296, 126.125 296 C 126.892 296, 128.734 297.125, 130.217 298.500 C 131.699 299.875, 133.495 301.013, 134.206 301.028 C 134.918 301.043, 136.813 302.393, 138.417 304.028 C 140.021 305.663, 141.897 307, 142.585 307 C 143.274 307, 145.323 308.575, 147.139 310.500 C 148.955 312.425, 151.087 314, 151.877 314 C 153.789 314, 177.316 337.776, 179.409 341.824 C 180.312 343.571, 181.490 345, 182.026 345 C 182.562 345, 183 346.077, 183 347.393 C 183 348.709, 183.675 350.045, 184.500 350.362 C 185.325 350.678, 186 351.642, 186 352.504 C 186 353.365, 186.714 355.160, 187.586 356.491 C 188.459 357.823, 188.879 359.388, 188.519 359.969 C 188.160 360.550, 188.571 362.439, 189.433 364.166 C 190.325 365.954, 191.014 369.934, 191.032 373.404 C 191.052 377.272, 191.619 380.231, 192.584 381.500 C 193.676 382.937, 194.046 385.553, 193.897 390.795 C 193.771 395.247, 194.140 398.540, 194.845 399.245 C 195.493 399.893, 196.014 403.495, 196.032 407.450 C 196.053 412.058, 196.572 415.172, 197.532 416.441 C 198.339 417.509, 199.014 419.534, 199.032 420.941 C 199.085 425.238, 201.199 427, 206.301 427 C 208.821 427, 211.160 427.450, 211.500 428 C 212.795 430.095, 223 429.207, 223 427 C 223 425.900, 223.450 425, 224 425 C 224.550 425, 225 423.480, 225 421.622 C 225 419.765, 225.675 417.685, 226.500 417 C 227.410 416.245, 228 414.055, 228 411.437 C 228 409.061, 228.450 406.840, 229 406.500 C 229.550 406.160, 230 404.164, 230 402.063 C 230 399.889, 230.646 397.709, 231.500 397 C 232.325 396.315, 233 394.283, 233 392.485 C 233 390.436, 233.586 388.989, 234.569 388.612 C 235.541 388.239, 235.920 387.323, 235.564 386.202 C 235.249 385.208, 235.653 383.519, 236.464 382.448 C 237.274 381.376, 237.965 379.600, 238 378.500 C 238.035 377.400, 238.724 375.626, 239.532 374.559 C 240.339 373.491, 241 371.155, 241 369.368 C 241 367.580, 241.340 365.908, 241.755 365.651 C 243.055 364.848, 247 368.723, 247 370.803 C 247 371.894, 247.675 373.045, 248.500 373.362 C 249.387 373.702, 250 375.204, 250 377.040 C 250 378.747, 250.708 380.850, 251.572 381.715 C 252.565 382.708, 252.925 384.164, 252.548 385.666 C 252.141 387.285, 252.438 388.231, 253.475 388.629 C 254.446 389.001, 255.012 390.538, 255.032 392.857 C 255.049 394.861, 255.724 397.374, 256.532 398.441 C 257.339 399.509, 258 401.871, 258 403.691 C 258 405.511, 258.450 407, 259 407 C 259.550 407, 260 408.970, 260 411.378 C 260 414.049, 260.585 416.240, 261.500 417 C 262.325 417.685, 263.014 419.877, 263.032 421.872 C 263.085 427.947, 273.581 432.722, 276.500 428 C 276.840 427.450, 279.179 427, 281.699 427 C 287.412 427, 288.914 425.251, 289 418.500 C 289.035 415.746, 289.723 412.628, 290.532 411.559 C 291.459 410.333, 292 407.315, 292 403.368 C 292 399.930, 292.450 396.840, 293 396.500 C 293.550 396.160, 294 393.070, 294 389.632 C 294 385.685, 294.541 382.667, 295.468 381.441 C 296.407 380.199, 296.948 377.106, 296.968 372.857 C 296.991 368.078, 297.397 366.062, 298.414 365.672 C 299.430 365.281, 299.681 364.038, 299.306 361.244 C 298.934 358.469, 299.244 356.899, 300.392 355.751 C 301.277 354.866, 302 353.422, 302 352.540 C 302 351.658, 302.675 350.678, 303.500 350.362 C 304.325 350.045, 305 348.913, 305 347.845 C 305 346.778, 306.125 344.862, 307.500 343.588 C 308.875 342.313, 310 340.682, 310 339.962 C 310 338.419, 329.470 319, 331.018 319 C 331.601 319, 334.422 316.750, 337.289 314.001 C 340.155 311.252, 343.084 309.002, 343.798 309.001 C 344.512 309, 346.138 307.875, 347.412 306.500 C 348.687 305.125, 350.099 304, 350.550 304 C 351.002 304, 353.506 302.200, 356.115 300 C 358.724 297.800, 361.401 296, 362.065 296 C 362.728 296, 364.313 294.875, 365.588 293.500 C 366.862 292.125, 368.523 291, 369.278 291 C 370.033 291, 371.708 289.875, 373 288.500 C 374.292 287.125, 376.170 286, 377.174 286 C 378.178 286, 379 285.652, 379 285.227 C 379 284.802, 380.687 283.569, 382.750 282.487 C 384.813 281.405, 386.860 279.953, 387.300 279.260 C 388.330 277.636, 398.189 277.589, 399.800 279.200 C 401.601 281.001, 401.372 293.446, 399.510 294.992 C 398.607 295.741, 398.241 297.113, 398.582 298.471 C 398.922 299.825, 398.522 301.335, 397.572 302.285 C 396.708 303.150, 396 305.253, 396 306.960 C 396 308.796, 395.387 310.298, 394.500 310.638 C 393.582 310.991, 393 312.507, 393 314.548 C 393 316.382, 392.550 318.160, 392 318.500 C 391.450 318.840, 390.986 320.554, 390.968 322.309 C 390.951 324.064, 390.276 326.374, 389.468 327.441 C 388.661 328.509, 388 331.231, 388 333.491 C 388 335.751, 387.531 338.069, 386.959 338.641 C 385.444 340.156, 386.151 357.223, 387.750 357.753 C 388.525 358.009, 389 357.226, 389 355.690 C 389 354.328, 389.675 352.955, 390.500 352.638 C 391.325 352.322, 392 351.455, 392 350.713 C 392 349.971, 393.575 347.594, 395.499 345.432 C 397.424 343.269, 398.999 340.941, 398.999 340.258 C 399 339.574, 400.350 337.813, 402 336.342 C 403.650 334.872, 405 333.051, 405 332.296 C 405 331.541, 406.800 329.049, 409 326.760 C 411.200 324.470, 413 322.057, 413 321.397 C 413 319.763, 459.912 273, 461.551 273 C 463.390 273, 464.035 255.265, 462.250 253.789 C 461.563 253.220, 461 251.910, 461 250.878 C 461 249.541, 460.279 249, 458.500 249 C 457.125 249, 456 248.550, 456 248 C 456 247.450, 454.473 247, 452.607 247 C 450.513 247, 448.994 246.426, 448.638 245.500 C 448.280 244.565, 446.754 244, 444.590 244 C 442.681 244, 440.840 243.550, 440.500 243 C 440.160 242.450, 438.645 242, 437.132 242 C 435.620 242, 433.509 241.339, 432.441 240.532 C 431.374 239.724, 429.473 239.049, 428.219 239.032 C 426.964 239.014, 425.678 238.325, 425.362 237.500 C 425.045 236.675, 423.923 236, 422.868 236 C 421.763 236, 420.563 234.981, 420.037 233.597 C 419.534 232.276, 418.646 230.899, 418.062 230.538 C 417.478 230.177, 417 226.759, 417 222.941 C 417 218.980, 416.571 216, 416 216 C 415.438 216, 415 213.207, 415 209.622 C 415 205.173, 414.546 202.868, 413.500 202 C 412.456 201.134, 412 198.833, 412 194.437 C 412 190.961, 411.550 187.840, 411 187.500 C 410.450 187.160, 410 183.364, 410 179.063 C 410 173.334, 409.599 170.912, 408.500 170 C 407.405 169.091, 407 166.682, 407 161.078 C 407 156.586, 406.519 152.919, 405.840 152.240 C 405.202 151.602, 404.580 147.875, 404.459 143.959 C 404.337 140.042, 403.734 136.334, 403.119 135.719 C 402.503 135.103, 401.986 131.428, 401.968 127.550 C 401.947 122.942, 401.428 119.828, 400.468 118.559 C 399.661 117.491, 399 114.904, 399 112.809 C 399 110.714, 398.589 109, 398.086 109 C 397.583 109, 395.220 107.212, 392.836 105.027 C 390.451 102.841, 388.030 101.041, 387.456 101.027 C 386.881 101.012, 384.481 99.200, 382.122 97 C 379.763 94.800, 377.265 93, 376.571 93 C 375.877 93, 374.482 92.085, 373.471 90.968 C 372.459 89.850, 370.027 87.963, 368.066 86.775 C 366.105 85.587, 363.509 83.577, 362.298 82.308 C 361.087 81.038, 359.477 80, 358.722 80 C 357.967 80, 356.292 78.875, 355 77.500 C 353.708 76.125, 352.147 75, 351.531 75 C 350.915 75, 348.481 73.200, 346.122 71 C 343.763 68.800, 341.264 67, 340.570 67 C 339.875 67, 337.685 65.425, 335.703 63.500 C 333.721 61.575, 331.702 60, 331.216 60 C 330.730 60, 328.383 58.200, 326 56 C 323.617 53.800, 321.139 52, 320.493 52 C 319.847 52, 317.482 50.200, 315.238 48 C 312.993 45.800, 310.631 44, 309.987 44 C 309.344 44, 306.978 42.425, 304.729 40.500 C 302.480 38.575, 300.159 36.996, 299.570 36.990 C 298.982 36.985, 296.925 35.189, 295 33 C 293.075 30.811, 290.768 29.015, 289.872 29.010 C 288.977 29.004, 287.685 28.325, 287 27.500 C 285.645 25.868, 284.702 25.632, 283.667 26.667 M 105.667 199.667 C 104.612 200.721, 104.892 209.815, 106 210.500 C 106.550 210.840, 107 212.859, 107 214.988 C 107 217.116, 107.675 219.532, 108.500 220.357 C 109.325 221.182, 110 223.253, 110 224.960 C 110 226.667, 110.600 228.293, 111.333 228.574 C 112.067 228.856, 112.667 230.504, 112.667 232.237 C 112.667 233.971, 113.192 235.564, 113.833 235.778 C 114.475 235.992, 115 237.206, 115 238.476 C 115 239.747, 115.675 241.045, 116.500 241.362 C 117.325 241.678, 118 242.825, 118 243.910 C 118 244.994, 118.450 246.160, 119 246.500 C 119.550 246.840, 120.008 247.879, 120.017 248.809 C 120.027 249.739, 121.152 251.560, 122.517 252.855 C 123.883 254.150, 125 255.753, 125 256.418 C 125 257.082, 126.334 258.904, 127.964 260.466 C 129.595 262.028, 130.695 263.685, 130.409 264.147 C 129.766 265.187, 144.825 280, 146.525 280 C 147.202 280, 148.281 280.634, 148.924 281.408 C 149.566 282.182, 151.534 283.545, 153.296 284.436 C 155.058 285.326, 157.175 286.423, 158 286.872 C 162.735 289.451, 164.206 290, 166.379 290 C 167.703 290, 169.045 290.675, 169.362 291.500 C 169.740 292.485, 171.301 293, 173.910 293 C 176.094 293, 178.160 293.450, 178.500 294 C 178.840 294.550, 181.904 295.020, 185.309 295.044 C 188.714 295.068, 193.300 295.736, 195.500 296.529 C 210.101 301.789, 223.199 292.577, 215.532 282.441 C 214.724 281.374, 214.049 279.023, 214.032 277.219 C 214.012 275.193, 213.404 273.709, 212.443 273.340 C 211.586 273.011, 211.117 272.138, 211.400 271.400 C 211.683 270.662, 211.259 269.402, 210.458 268.600 C 209.656 267.799, 209 265.809, 209 264.178 C 209 262.466, 208.367 260.971, 207.500 260.638 C 206.675 260.322, 206 259.175, 206 258.090 C 206 257.006, 205.550 255.840, 205 255.500 C 204.450 255.160, 204 253.994, 204 252.910 C 204 251.825, 203.325 250.678, 202.500 250.362 C 201.675 250.045, 201 249.314, 201 248.737 C 201 248.161, 199.875 246.214, 198.500 244.411 C 197.125 242.608, 196 240.700, 196 240.169 C 196 238.806, 181.372 224, 180.025 224 C 179.413 224, 177.699 222.875, 176.217 221.500 C 174.734 220.125, 172.728 219, 171.760 219 C 170.792 219, 170 218.550, 170 218 C 170 217.450, 168.988 216.986, 167.750 216.968 C 166.512 216.951, 164.626 216.276, 163.559 215.468 C 162.491 214.661, 160.579 214, 159.309 214 C 158.039 214, 157 213.550, 157 213 C 157 212.450, 155.255 212, 153.122 212 C 150.896 212, 148.715 211.361, 148 210.500 C 147.285 209.639, 145.104 209, 142.878 209 C 140.745 209, 139 208.550, 139 208 C 139 207.450, 137.030 207, 134.622 207 C 131.951 207, 129.760 206.415, 129 205.500 C 128.278 204.630, 126.096 204, 123.806 204 C 121.629 204, 119.184 203.327, 118.357 202.500 C 117.532 201.675, 115.566 201, 113.988 201 C 112.409 201, 110.840 200.550, 110.500 200 C 109.802 198.870, 106.679 198.655, 105.667 199.667 M 377.582 199.867 C 377.287 200.344, 374.913 200.975, 372.306 201.269 C 369.699 201.563, 367.401 202.298, 367.199 202.902 C 366.998 203.506, 364.607 204, 361.885 204 C 358.410 204, 356.766 204.446, 356.362 205.500 C 355.972 206.514, 354.382 207, 351.452 207 C 349.068 207, 346.840 207.450, 346.500 208 C 346.160 208.550, 344.319 209, 342.410 209 C 340.246 209, 338.720 209.565, 338.362 210.500 C 338.009 211.418, 336.493 212, 334.452 212 C 332.618 212, 330.840 212.450, 330.500 213 C 330.160 213.550, 328.544 214, 326.910 214 C 325.190 214, 323.695 214.632, 323.362 215.500 C 323.045 216.325, 321.822 217.033, 320.643 217.073 C 319.464 217.113, 317.150 218.007, 315.500 219.058 C 313.850 220.110, 311.531 221.399, 310.346 221.924 C 307.425 223.217, 295 235.679, 295 237.315 C 295 238.036, 293.650 239.919, 292 241.500 C 290.350 243.081, 289 245.190, 289 246.187 C 289 247.184, 288.663 248.003, 288.250 248.006 C 287.269 248.015, 284 253.777, 284 255.498 C 284 256.232, 283.563 256.983, 283.029 257.167 C 282.495 257.350, 281.904 258.519, 281.715 259.764 C 281.527 261.009, 280.839 262.561, 280.186 263.214 C 279.534 263.866, 279 265.017, 279 265.771 C 279 266.526, 278.325 267.818, 277.500 268.643 C 276.675 269.468, 276 271.209, 276 272.512 C 276 273.816, 275.550 275.160, 275 275.500 C 274.450 275.840, 274 277.611, 274 279.437 C 274 281.262, 273.325 283.315, 272.500 284 C 265.234 290.030, 274.989 299.616, 285.760 297.031 C 288.917 296.273, 295.325 295.475, 300 295.256 C 304.675 295.038, 308.927 294.441, 309.450 293.930 C 309.972 293.418, 312.055 293, 314.078 293 C 316.127 293, 318.306 292.336, 319 291.500 C 319.685 290.675, 321.513 290, 323.063 290 C 324.614 290, 326.160 289.550, 326.500 289 C 326.840 288.450, 327.943 288, 328.952 288 C 329.961 288, 331.045 287.325, 331.362 286.500 C 331.678 285.675, 332.635 285, 333.488 285 C 336.946 285, 360 265.385, 360 262.444 C 360 262.029, 361.125 260.214, 362.500 258.411 C 363.875 256.608, 365 254.477, 365 253.674 C 365 252.871, 365.675 251.955, 366.500 251.638 C 367.325 251.322, 368 250.175, 368 249.090 C 368 248.006, 368.450 246.840, 369 246.500 C 369.550 246.160, 370 245.057, 370 244.048 C 370 243.039, 370.675 241.955, 371.500 241.638 C 372.325 241.322, 373 239.924, 373 238.531 C 373 237.139, 373.450 236, 374 236 C 374.550 236, 375 234.705, 375 233.122 C 375 231.540, 375.675 229.685, 376.500 229 C 377.325 228.315, 378 226.515, 378 225 C 378 223.485, 378.714 221.652, 379.586 220.928 C 380.660 220.037, 380.989 218.694, 380.604 216.768 C 380.207 214.783, 380.483 213.752, 381.517 213.355 C 384.443 212.232, 383.559 199, 380.559 199 C 379.216 199, 377.877 199.390, 377.582 199.867" stroke="none" fill="#000" fill-rule="evenodd"/></svg>