<?xml version="1.0" standalone="no"?>
<!DOCTYPE svg PUBLIC "-//W3C//DTD SVG 20010904//EN"
 "http://www.w3.org/TR/2001/REC-SVG-20010904/DTD/svg10.dtd">
<svg version="1.0" xmlns="http://www.w3.org/2000/svg"
 width="654.000000pt" height="598.000000pt" viewBox="0 0 654.000000 598.000000"
 preserveAspectRatio="xMidYMid meet">

<g transform="translate(0.000000,598.000000) scale(0.100000,-0.100000)"
fill="#000000" stroke="none">
<path d="M2705 5957 c-36 -26 -599 -437 -1250 -914 l-480 -352 -57 -378 c-85
-556 -208 -1346 -213 -1360 -8 -24 -86 -53 -311 -118 -126 -37 -234 -72 -241
-78 -15 -16 -145 -376 -141 -392 2 -8 53 -55 113 -105 247 -205 584 -548 756
-767 96 -122 218 -304 309 -461 36 -61 68 -112 71 -112 4 0 46 53 93 117 58
80 86 127 86 145 0 46 -89 463 -126 589 -19 66 -52 161 -74 211 -22 51 -37 94
-34 97 6 7 170 -74 304 -151 139 -79 324 -204 435 -293 163 -132 341 -332 405
-456 18 -35 52 -240 145 -879 20 -135 38 -257 41 -273 l6 -27 276 0 277 0 85
340 c47 187 87 340 90 340 3 0 39 -132 80 -292 41 -161 80 -314 88 -341 l14
-47 276 2 276 3 12 85 c6 47 30 209 53 360 23 151 55 365 72 475 16 110 34
213 39 229 19 55 126 201 220 300 162 169 381 332 650 484 154 86 278 148 284
141 3 -3 -10 -42 -29 -88 -66 -157 -130 -396 -185 -702 l-23 -126 89 -121 c48
-67 91 -122 94 -122 3 0 36 53 74 118 150 255 299 459 492 674 135 150 360
368 518 502 66 56 132 112 147 126 l27 25 -71 197 c-62 169 -76 199 -97 207
-14 6 -74 24 -135 41 -211 61 -368 113 -384 129 -11 11 -25 75 -45 201 -16
102 -77 493 -135 869 l-107 684 -30 22 c-16 12 -191 141 -389 285 -198 145
-441 323 -540 395 -460 336 -779 567 -790 571 -8 3 -32 -29 -62 -83 -120 -212
-120 -213 -133 -313 -17 -138 -159 -1130 -166 -1162 l-6 -28 -177 0 -178 0 -6
43 c-3 23 -44 312 -92 642 l-87 600 -76 140 c-103 191 -92 177 -127 152z
m-1010 -2818 c250 -42 442 -104 575 -187 192 -119 345 -344 448 -657 58 -176
57 -173 25 -182 -16 -5 -89 -8 -163 -7 -113 1 -151 5 -235 27 -308 83 -540
293 -717 649 -54 108 -138 336 -138 374 0 17 -7 18 205 -17z m3355 9 c0 -42
-79 -257 -134 -367 -194 -390 -454 -605 -805 -666 -88 -16 -205 -18 -281 -7
-44 7 -45 8 -43 43 3 55 68 241 128 367 185 386 418 537 970 627 176 29 165
29 165 3z"/>
</g>
</svg>
